solid OpenSCAD_Model
  facet normal -1 0 0
    outer loop
      vertex -6 15.0091 9.22
      vertex -6 0 9.5
      vertex -6 165.1 9.5
    endloop
  endfacet
  facet normal -1 0 0
    outer loop
      vertex -6 10.9215 2.14
      vertex -6 0 9.5
      vertex -6 15.0091 9.22
    endloop
  endfacet
  facet normal -1 0 0
    outer loop
      vertex -6 30.0182 9.22
      vertex -6 15.0091 9.22
      vertex -6 165.1 9.5
    endloop
  endfacet
  facet normal -1 0 0
    outer loop
      vertex -6 0 0
      vertex -6 0 9.5
      vertex -6 10.9215 2.14
    endloop
  endfacet
  facet normal -1 0 0
    outer loop
      vertex -6 0 0
      vertex -6 10.9215 2.14
      vertex -6 165.1 0
    endloop
  endfacet
  facet normal -1 0 0
    outer loop
      vertex -6 130.994 2.14
      vertex -6 165.1 0
      vertex -6 124.16 2.14
    endloop
  endfacet
  facet normal -1 0 0
    outer loop
      vertex -6 10.9215 2.14
      vertex -6 19.0967 2.14
      vertex -6 165.1 0
    endloop
  endfacet
  facet normal -1 0 0
    outer loop
      vertex -6 25.9305 2.14
      vertex -6 15.0091 9.22
      vertex -6 30.0182 9.22
    endloop
  endfacet
  facet normal -1 0 0
    outer loop
      vertex -6 45.0273 9.22
      vertex -6 30.0182 9.22
      vertex -6 165.1 9.5
    endloop
  endfacet
  facet normal -1 0 0
    outer loop
      vertex -6 19.0967 2.14
      vertex -6 25.9305 2.14
      vertex -6 165.1 0
    endloop
  endfacet
  facet normal -1 0 0
    outer loop
      vertex -6 105.064 9.22
      vertex -6 115.985 2.14
      vertex -6 109.151 2.14
    endloop
  endfacet
  facet normal -1 0 0
    outer loop
      vertex -6 25.9305 2.14
      vertex -6 34.1058 2.14
      vertex -6 165.1 0
    endloop
  endfacet
  facet normal -1 0 0
    outer loop
      vertex -6 40.9396 2.14
      vertex -6 30.0182 9.22
      vertex -6 45.0273 9.22
    endloop
  endfacet
  facet normal -1 0 0
    outer loop
      vertex -6 60.0364 9.22
      vertex -6 45.0273 9.22
      vertex -6 165.1 9.5
    endloop
  endfacet
  facet normal -1 0 0
    outer loop
      vertex -6 30.0182 9.22
      vertex -6 40.9396 2.14
      vertex -6 34.1058 2.14
    endloop
  endfacet
  facet normal -1 0 0
    outer loop
      vertex -6 34.1058 2.14
      vertex -6 40.9396 2.14
      vertex -6 165.1 0
    endloop
  endfacet
  facet normal -1 0 0
    outer loop
      vertex -6 139.169 2.14
      vertex -6 165.1 0
      vertex -6 130.994 2.14
    endloop
  endfacet
  facet normal -1 0 0
    outer loop
      vertex -6 40.9396 2.14
      vertex -6 49.1149 2.14
      vertex -6 165.1 0
    endloop
  endfacet
  facet normal -1 0 0
    outer loop
      vertex -6 55.9487 2.14
      vertex -6 45.0273 9.22
      vertex -6 60.0364 9.22
    endloop
  endfacet
  facet normal -1 0 0
    outer loop
      vertex -6 75.0455 9.22
      vertex -6 60.0364 9.22
      vertex -6 165.1 9.5
    endloop
  endfacet
  facet normal -1 0 0
    outer loop
      vertex -6 49.1149 2.14
      vertex -6 55.9487 2.14
      vertex -6 165.1 0
    endloop
  endfacet
  facet normal -1 0 0
    outer loop
      vertex -6 55.9487 2.14
      vertex -6 64.124 2.14
      vertex -6 165.1 0
    endloop
  endfacet
  facet normal -1 0 0
    outer loop
      vertex -6 70.9578 2.14
      vertex -6 60.0364 9.22
      vertex -6 75.0455 9.22
    endloop
  endfacet
  facet normal -1 0 0
    outer loop
      vertex -6 90.0545 9.22
      vertex -6 75.0455 9.22
      vertex -6 165.1 9.5
    endloop
  endfacet
  facet normal -1 0 0
    outer loop
      vertex -6 60.0364 9.22
      vertex -6 70.9578 2.14
      vertex -6 64.124 2.14
    endloop
  endfacet
  facet normal -1 0 0
    outer loop
      vertex -6 64.124 2.14
      vertex -6 70.9578 2.14
      vertex -6 165.1 0
    endloop
  endfacet
  facet normal -1 0 0
    outer loop
      vertex -6 146.003 2.14
      vertex -6 165.1 0
      vertex -6 139.169 2.14
    endloop
  endfacet
  facet normal -1 0 0
    outer loop
      vertex -6 70.9578 2.14
      vertex -6 79.1331 2.14
      vertex -6 165.1 0
    endloop
  endfacet
  facet normal -1 0 0
    outer loop
      vertex -6 85.9669 2.14
      vertex -6 75.0455 9.22
      vertex -6 90.0545 9.22
    endloop
  endfacet
  facet normal -1 0 0
    outer loop
      vertex -6 105.064 9.22
      vertex -6 90.0545 9.22
      vertex -6 165.1 9.5
    endloop
  endfacet
  facet normal -1 0 0
    outer loop
      vertex -6 79.1331 2.14
      vertex -6 85.9669 2.14
      vertex -6 165.1 0
    endloop
  endfacet
  facet normal -1 0 0
    outer loop
      vertex -6 85.9669 2.14
      vertex -6 94.1422 2.14
      vertex -6 165.1 0
    endloop
  endfacet
  facet normal -1 0 0
    outer loop
      vertex -6 100.976 2.14
      vertex -6 90.0545 9.22
      vertex -6 105.064 9.22
    endloop
  endfacet
  facet normal -1 0 0
    outer loop
      vertex -6 120.073 9.22
      vertex -6 105.064 9.22
      vertex -6 165.1 9.5
    endloop
  endfacet
  facet normal -1 0 0
    outer loop
      vertex -6 90.0545 9.22
      vertex -6 100.976 2.14
      vertex -6 94.1422 2.14
    endloop
  endfacet
  facet normal -1 0 0
    outer loop
      vertex -6 94.1422 2.14
      vertex -6 100.976 2.14
      vertex -6 165.1 0
    endloop
  endfacet
  facet normal -1 0 0
    outer loop
      vertex -6 154.179 2.14
      vertex -6 165.1 0
      vertex -6 146.003 2.14
    endloop
  endfacet
  facet normal -1 0 0
    outer loop
      vertex -6 100.976 2.14
      vertex -6 109.151 2.14
      vertex -6 165.1 0
    endloop
  endfacet
  facet normal -1 0 0
    outer loop
      vertex -6 115.985 2.14
      vertex -6 105.064 9.22
      vertex -6 120.073 9.22
    endloop
  endfacet
  facet normal -1 0 0
    outer loop
      vertex -6 135.082 9.22
      vertex -6 120.073 9.22
      vertex -6 165.1 9.5
    endloop
  endfacet
  facet normal -1 0 0
    outer loop
      vertex -6 109.151 2.14
      vertex -6 115.985 2.14
      vertex -6 165.1 0
    endloop
  endfacet
  facet normal -1 0 0
    outer loop
      vertex -6 115.985 2.14
      vertex -6 124.16 2.14
      vertex -6 165.1 0
    endloop
  endfacet
  facet normal -1 0 0
    outer loop
      vertex -6 130.994 2.14
      vertex -6 120.073 9.22
      vertex -6 135.082 9.22
    endloop
  endfacet
  facet normal -1 0 0
    outer loop
      vertex -6 150.091 9.22
      vertex -6 135.082 9.22
      vertex -6 165.1 9.5
    endloop
  endfacet
  facet normal -1 0 0
    outer loop
      vertex -6 146.003 2.14
      vertex -6 135.082 9.22
      vertex -6 150.091 9.22
    endloop
  endfacet
  facet normal -1 0 0
    outer loop
      vertex -6 165.1 0
      vertex -6 150.091 9.22
      vertex -6 165.1 9.5
    endloop
  endfacet
  facet normal -1 0 0
    outer loop
      vertex -6 135.082 9.22
      vertex -6 146.003 2.14
      vertex -6 139.169 2.14
    endloop
  endfacet
  facet normal -1 0 0
    outer loop
      vertex -6 75.0455 9.22
      vertex -6 85.9669 2.14
      vertex -6 79.1331 2.14
    endloop
  endfacet
  facet normal -1 0 0
    outer loop
      vertex -6 45.0273 9.22
      vertex -6 55.9487 2.14
      vertex -6 49.1149 2.14
    endloop
  endfacet
  facet normal -1 0 0
    outer loop
      vertex -6 150.091 9.22
      vertex -6 165.1 0
      vertex -6 154.179 2.14
    endloop
  endfacet
  facet normal -1 0 0
    outer loop
      vertex -6 15.0091 9.22
      vertex -6 25.9305 2.14
      vertex -6 19.0967 2.14
    endloop
  endfacet
  facet normal -1 0 0
    outer loop
      vertex -6 120.073 9.22
      vertex -6 130.994 2.14
      vertex -6 124.16 2.14
    endloop
  endfacet
  facet normal 0 -1 0
    outer loop
      vertex 0 0 6
      vertex -6 0 0
      vertex 26.65 0 0
    endloop
  endfacet
  facet normal 0 -1 0
    outer loop
      vertex 0 0 6
      vertex -5.4 0 9.5
      vertex -6 0 9.5
    endloop
  endfacet
  facet normal 0 -1 0
    outer loop
      vertex 62.3 0 0
      vertex 29.65 0 1.5
      vertex 29.65 0 0
    endloop
  endfacet
  facet normal 0 -1 0
    outer loop
      vertex 0 0 6
      vertex 0 0 15.5
      vertex -5.4 0 9.5
    endloop
  endfacet
  facet normal 0 -1 0
    outer loop
      vertex 62.3 0 9.5
      vertex 61.7 0 9.5
      vertex 62.3 0 0
    endloop
  endfacet
  facet normal 0 -1 0
    outer loop
      vertex 56.3 0 6
      vertex 0 0 6
      vertex 26.65 0 1.5
    endloop
  endfacet
  facet normal 0 -1 0
    outer loop
      vertex 26.65 0 1.5
      vertex 0 0 6
      vertex 26.65 0 0
    endloop
  endfacet
  facet normal 0 -1 0
    outer loop
      vertex 61.7 0 9.5
      vertex 56.3 0 6
      vertex 62.3 0 0
    endloop
  endfacet
  facet normal 0 -1 0
    outer loop
      vertex -6 0 9.5
      vertex -6 0 0
      vertex 0 0 6
    endloop
  endfacet
  facet normal 0 -1 0
    outer loop
      vertex 0 0 15.5
      vertex -5.4 0 15.5
      vertex -5.4 0 14
    endloop
  endfacet
  facet normal 0 -1 0
    outer loop
      vertex 0 0 15.5
      vertex -5.4 0 14
      vertex -3.9 0 12.5
    endloop
  endfacet
  facet normal 0 -1 0
    outer loop
      vertex 56.3 0 6
      vertex 29.65 0 1.5
      vertex 62.3 0 0
    endloop
  endfacet
  facet normal 0 -1 0
    outer loop
      vertex 56.3 0 6
      vertex 26.65 0 1.5
      vertex 29.65 0 1.5
    endloop
  endfacet
  facet normal 0 -1 0
    outer loop
      vertex -5.4 0 11
      vertex 0 0 15.5
      vertex -3.9 0 12.5
    endloop
  endfacet
  facet normal 0 -1 0
    outer loop
      vertex -5.4 0 11
      vertex -5.4 0 9.5
      vertex 0 0 15.5
    endloop
  endfacet
  facet normal 0 -1 0
    outer loop
      vertex 56.3 0 15.5
      vertex 61.7 0 14
      vertex 61.7 0 15.5
    endloop
  endfacet
  facet normal 0 -1 0
    outer loop
      vertex 56.3 0 15.5
      vertex 60.2 0 12.5
      vertex 61.7 0 14
    endloop
  endfacet
  facet normal 0 -1 0
    outer loop
      vertex 56.3 0 15.5
      vertex 61.7 0 11
      vertex 60.2 0 12.5
    endloop
  endfacet
  facet normal 0 -1 0
    outer loop
      vertex 56.3 0 15.5
      vertex 61.7 0 9.5
      vertex 61.7 0 11
    endloop
  endfacet
  facet normal 0 -1 0
    outer loop
      vertex 56.3 0 15.5
      vertex 56.3 0 6
      vertex 61.7 0 9.5
    endloop
  endfacet
  facet normal 0 0 -1
    outer loop
      vertex -6 0 0
      vertex -6 165.1 0
      vertex 26.65 0 0
    endloop
  endfacet
  facet normal 0 0 -1
    outer loop
      vertex 26.65 0 0
      vertex -6 165.1 0
      vertex 26.65 165.1 0
    endloop
  endfacet
  facet normal 0 1 0
    outer loop
      vertex 56.3 165.1 6
      vertex 29.65 165.1 1.5
      vertex 26.65 165.1 1.5
    endloop
  endfacet
  facet normal 0 1 0
    outer loop
      vertex 26.65 165.1 1.5
      vertex 26.65 165.1 0
      vertex 0 165.1 6
    endloop
  endfacet
  facet normal 0 1 0
    outer loop
      vertex 56.3 165.1 6
      vertex 26.65 165.1 1.5
      vertex 0 165.1 6
    endloop
  endfacet
  facet normal 0 1 0
    outer loop
      vertex -6 165.1 0
      vertex -6 165.1 9.5
      vertex 0 165.1 6
    endloop
  endfacet
  facet normal 0 1 0
    outer loop
      vertex -6 165.1 0
      vertex 0 165.1 6
      vertex 26.65 165.1 0
    endloop
  endfacet
  facet normal 0 1 0
    outer loop
      vertex 61.7 165.1 11
      vertex 56.3 165.1 6
      vertex 60.2 165.1 12.5
    endloop
  endfacet
  facet normal 0 1 0
    outer loop
      vertex 56.3 165.1 6
      vertex 56.3 165.1 15.5
      vertex 61.7 165.1 15.5
    endloop
  endfacet
  facet normal 0 1 0
    outer loop
      vertex 60.2 165.1 12.5
      vertex 61.7 165.1 15.5
      vertex 61.7 165.1 14
    endloop
  endfacet
  facet normal 0 1 0
    outer loop
      vertex 56.3 165.1 6
      vertex 61.7 165.1 15.5
      vertex 60.2 165.1 12.5
    endloop
  endfacet
  facet normal 0 1 0
    outer loop
      vertex 29.65 165.1 1.5
      vertex 56.3 165.1 6
      vertex 29.65 165.1 0
    endloop
  endfacet
  facet normal 0 1 0
    outer loop
      vertex 56.3 165.1 6
      vertex 61.7 165.1 11
      vertex 61.7 165.1 9.5
    endloop
  endfacet
  facet normal 0 1 0
    outer loop
      vertex 56.3 165.1 6
      vertex 61.7 165.1 9.5
      vertex 62.3 165.1 9.5
    endloop
  endfacet
  facet normal 0 1 0
    outer loop
      vertex 56.3 165.1 6
      vertex 62.3 165.1 9.5
      vertex 62.3 165.1 0
    endloop
  endfacet
  facet normal 0 1 0
    outer loop
      vertex 56.3 165.1 6
      vertex 62.3 165.1 0
      vertex 29.65 165.1 0
    endloop
  endfacet
  facet normal 0 1 0
    outer loop
      vertex 0 165.1 6
      vertex -6 165.1 9.5
      vertex -5.4 165.1 9.5
    endloop
  endfacet
  facet normal 0 1 0
    outer loop
      vertex 0 165.1 6
      vertex -5.4 165.1 9.5
      vertex -5.4 165.1 11
    endloop
  endfacet
  facet normal 0 1 0
    outer loop
      vertex 0 165.1 6
      vertex -5.4 165.1 11
      vertex -3.9 165.1 12.5
    endloop
  endfacet
  facet normal 0 1 0
    outer loop
      vertex -3.9 165.1 12.5
      vertex -5.4 165.1 14
      vertex -5.4 165.1 15.5
    endloop
  endfacet
  facet normal 0 1 0
    outer loop
      vertex 0 165.1 6
      vertex -3.9 165.1 12.5
      vertex -5.4 165.1 15.5
    endloop
  endfacet
  facet normal 0 1 0
    outer loop
      vertex 0 165.1 6
      vertex -5.4 165.1 15.5
      vertex 0 165.1 15.5
    endloop
  endfacet
  facet normal 0 0 1
    outer loop
      vertex -6 165.1 9.5
      vertex -6 0 9.5
      vertex -5.4 0 9.5
    endloop
  endfacet
  facet normal 0 0 1
    outer loop
      vertex -5.4 165.1 9.5
      vertex -6 165.1 9.5
      vertex -5.4 0 9.5
    endloop
  endfacet
  facet normal -1.11022e-16 -0.866025 -0.5
    outer loop
      vertex 56.3 16.8682 6
      vertex 62.3 19.0967 2.14
      vertex 62.3 15.0091 9.22
    endloop
  endfacet
  facet normal -1.11022e-16 -0.866025 -0.5
    outer loop
      vertex 56.3 16.8682 6
      vertex 0 16.8682 6
      vertex -6 19.0967 2.14
    endloop
  endfacet
  facet normal -1.11022e-16 -0.866025 -0.5
    outer loop
      vertex -6 19.0967 2.14
      vertex 62.3 19.0967 2.14
      vertex 56.3 16.8682 6
    endloop
  endfacet
  facet normal -1.11022e-16 -0.866025 -0.5
    outer loop
      vertex 0 15.0091 9.22
      vertex -6 19.0967 2.14
      vertex 0 16.8682 6
    endloop
  endfacet
  facet normal -1.11022e-16 -0.866025 -0.5
    outer loop
      vertex -6 15.0091 9.22
      vertex -6 19.0967 2.14
      vertex 0 15.0091 9.22
    endloop
  endfacet
  facet normal -1.11022e-16 -0.866025 -0.5
    outer loop
      vertex 56.3 15.0091 9.22
      vertex 56.3 16.8682 6
      vertex 62.3 15.0091 9.22
    endloop
  endfacet
  facet normal 2.22045e-16 0.866025 -0.5
    outer loop
      vertex 0 15.0091 9.22
      vertex 0 13.15 6
      vertex -6 15.0091 9.22
    endloop
  endfacet
  facet normal 2.22045e-16 0.866025 -0.5
    outer loop
      vertex -6 10.9215 2.14
      vertex 0 13.15 6
      vertex 62.3 10.9215 2.14
    endloop
  endfacet
  facet normal 2.22045e-16 0.866025 -0.5
    outer loop
      vertex 62.3 15.0091 9.22
      vertex 56.3 13.15 6
      vertex 56.3 15.0091 9.22
    endloop
  endfacet
  facet normal 2.22045e-16 0.866025 -0.5
    outer loop
      vertex 62.3 10.9215 2.14
      vertex 56.3 13.15 6
      vertex 62.3 15.0091 9.22
    endloop
  endfacet
  facet normal 2.22045e-16 0.866025 -0.5
    outer loop
      vertex 0 13.15 6
      vertex 56.3 13.15 6
      vertex 62.3 10.9215 2.14
    endloop
  endfacet
  facet normal 2.22045e-16 0.866025 -0.5
    outer loop
      vertex -6 15.0091 9.22
      vertex 0 13.15 6
      vertex -6 10.9215 2.14
    endloop
  endfacet
  facet normal -1.11022e-16 -9.97219e-09 1
    outer loop
      vertex 62.3 10.9215 2.14
      vertex 62.3 19.0967 2.14
      vertex -6 19.0967 2.14
    endloop
  endfacet
  facet normal -1.11022e-16 -9.97219e-09 1
    outer loop
      vertex -6 10.9215 2.14
      vertex 62.3 10.9215 2.14
      vertex -6 19.0967 2.14
    endloop
  endfacet
  facet normal 2.22045e-16 0.866025 -0.5
    outer loop
      vertex 0 30.0182 9.22
      vertex 0 28.1591 6
      vertex -6 30.0182 9.22
    endloop
  endfacet
  facet normal 2.22045e-16 0.866025 -0.5
    outer loop
      vertex -6 25.9305 2.14
      vertex 0 28.1591 6
      vertex 62.3 25.9305 2.14
    endloop
  endfacet
  facet normal 2.22045e-16 0.866025 -0.5
    outer loop
      vertex 62.3 30.0182 9.22
      vertex 56.3 28.1591 6
      vertex 56.3 30.0182 9.22
    endloop
  endfacet
  facet normal 2.22045e-16 0.866025 -0.5
    outer loop
      vertex 62.3 25.9305 2.14
      vertex 56.3 28.1591 6
      vertex 62.3 30.0182 9.22
    endloop
  endfacet
  facet normal 2.22045e-16 0.866025 -0.5
    outer loop
      vertex 0 28.1591 6
      vertex 56.3 28.1591 6
      vertex 62.3 25.9305 2.14
    endloop
  endfacet
  facet normal 2.22045e-16 0.866025 -0.5
    outer loop
      vertex -6 30.0182 9.22
      vertex 0 28.1591 6
      vertex -6 25.9305 2.14
    endloop
  endfacet
  facet normal -1.11022e-16 -0.866025 -0.5
    outer loop
      vertex 56.3 31.8772 6
      vertex 62.3 34.1058 2.14
      vertex 62.3 30.0182 9.22
    endloop
  endfacet
  facet normal -1.11022e-16 -0.866025 -0.5
    outer loop
      vertex 56.3 31.8772 6
      vertex 0 31.8772 6
      vertex -6 34.1058 2.14
    endloop
  endfacet
  facet normal -1.11022e-16 -0.866025 -0.5
    outer loop
      vertex -6 34.1058 2.14
      vertex 62.3 34.1058 2.14
      vertex 56.3 31.8772 6
    endloop
  endfacet
  facet normal -1.11022e-16 -0.866025 -0.5
    outer loop
      vertex 0 30.0182 9.22
      vertex -6 34.1058 2.14
      vertex 0 31.8772 6
    endloop
  endfacet
  facet normal -1.11022e-16 -0.866025 -0.5
    outer loop
      vertex -6 30.0182 9.22
      vertex -6 34.1058 2.14
      vertex 0 30.0182 9.22
    endloop
  endfacet
  facet normal -1.11022e-16 -0.866025 -0.5
    outer loop
      vertex 56.3 30.0182 9.22
      vertex 56.3 31.8772 6
      vertex 62.3 30.0182 9.22
    endloop
  endfacet
  facet normal -1.11022e-16 -9.97219e-09 1
    outer loop
      vertex 62.3 25.9305 2.14
      vertex 62.3 34.1058 2.14
      vertex -6 34.1058 2.14
    endloop
  endfacet
  facet normal -1.11022e-16 -9.97219e-09 1
    outer loop
      vertex -6 25.9305 2.14
      vertex 62.3 25.9305 2.14
      vertex -6 34.1058 2.14
    endloop
  endfacet
  facet normal -1.11022e-16 -0.866025 -0.5
    outer loop
      vertex 56.3 46.8863 6
      vertex 62.3 49.1149 2.14
      vertex 62.3 45.0273 9.22
    endloop
  endfacet
  facet normal -1.11022e-16 -0.866025 -0.5
    outer loop
      vertex 56.3 46.8863 6
      vertex 0 46.8863 6
      vertex -6 49.1149 2.14
    endloop
  endfacet
  facet normal -1.11022e-16 -0.866025 -0.5
    outer loop
      vertex -6 49.1149 2.14
      vertex 62.3 49.1149 2.14
      vertex 56.3 46.8863 6
    endloop
  endfacet
  facet normal -1.11022e-16 -0.866025 -0.5
    outer loop
      vertex 0 45.0273 9.22
      vertex -6 49.1149 2.14
      vertex 0 46.8863 6
    endloop
  endfacet
  facet normal -1.11022e-16 -0.866025 -0.5
    outer loop
      vertex -6 45.0273 9.22
      vertex -6 49.1149 2.14
      vertex 0 45.0273 9.22
    endloop
  endfacet
  facet normal -1.11022e-16 -0.866025 -0.5
    outer loop
      vertex 56.3 45.0273 9.22
      vertex 56.3 46.8863 6
      vertex 62.3 45.0273 9.22
    endloop
  endfacet
  facet normal 2.22045e-16 0.866025 -0.5
    outer loop
      vertex 0 45.0273 9.22
      vertex 0 43.1682 6
      vertex -6 45.0273 9.22
    endloop
  endfacet
  facet normal 2.22045e-16 0.866025 -0.5
    outer loop
      vertex -6 40.9396 2.14
      vertex 0 43.1682 6
      vertex 62.3 40.9396 2.14
    endloop
  endfacet
  facet normal 2.22045e-16 0.866025 -0.5
    outer loop
      vertex 62.3 45.0273 9.22
      vertex 56.3 43.1682 6
      vertex 56.3 45.0273 9.22
    endloop
  endfacet
  facet normal 2.22045e-16 0.866025 -0.5
    outer loop
      vertex 62.3 40.9396 2.14
      vertex 56.3 43.1682 6
      vertex 62.3 45.0273 9.22
    endloop
  endfacet
  facet normal 2.22045e-16 0.866025 -0.5
    outer loop
      vertex 0 43.1682 6
      vertex 56.3 43.1682 6
      vertex 62.3 40.9396 2.14
    endloop
  endfacet
  facet normal 2.22045e-16 0.866025 -0.5
    outer loop
      vertex -6 45.0273 9.22
      vertex 0 43.1682 6
      vertex -6 40.9396 2.14
    endloop
  endfacet
  facet normal -1.11022e-16 -9.97219e-09 1
    outer loop
      vertex 62.3 40.9396 2.14
      vertex 62.3 49.1149 2.14
      vertex -6 49.1149 2.14
    endloop
  endfacet
  facet normal -1.11022e-16 -9.97219e-09 1
    outer loop
      vertex -6 40.9396 2.14
      vertex 62.3 40.9396 2.14
      vertex -6 49.1149 2.14
    endloop
  endfacet
  facet normal -1.11022e-16 -0.866025 -0.5
    outer loop
      vertex 56.3 61.8954 6
      vertex 62.3 64.124 2.14
      vertex 62.3 60.0364 9.22
    endloop
  endfacet
  facet normal -1.11022e-16 -0.866025 -0.5
    outer loop
      vertex 56.3 61.8954 6
      vertex 0 61.8954 6
      vertex -6 64.124 2.14
    endloop
  endfacet
  facet normal -1.11022e-16 -0.866025 -0.5
    outer loop
      vertex -6 64.124 2.14
      vertex 62.3 64.124 2.14
      vertex 56.3 61.8954 6
    endloop
  endfacet
  facet normal -1.11022e-16 -0.866025 -0.5
    outer loop
      vertex 0 60.0364 9.22
      vertex -6 64.124 2.14
      vertex 0 61.8954 6
    endloop
  endfacet
  facet normal -1.11022e-16 -0.866025 -0.5
    outer loop
      vertex -6 60.0364 9.22
      vertex -6 64.124 2.14
      vertex 0 60.0364 9.22
    endloop
  endfacet
  facet normal -1.11022e-16 -0.866025 -0.5
    outer loop
      vertex 56.3 60.0364 9.22
      vertex 56.3 61.8954 6
      vertex 62.3 60.0364 9.22
    endloop
  endfacet
  facet normal 2.22045e-16 0.866025 -0.5
    outer loop
      vertex 0 60.0364 9.22
      vertex 0 58.1773 6
      vertex -6 60.0364 9.22
    endloop
  endfacet
  facet normal 2.22045e-16 0.866025 -0.5
    outer loop
      vertex -6 55.9487 2.14
      vertex 0 58.1773 6
      vertex 62.3 55.9487 2.14
    endloop
  endfacet
  facet normal 2.22045e-16 0.866025 -0.5
    outer loop
      vertex 62.3 60.0364 9.22
      vertex 56.3 58.1773 6
      vertex 56.3 60.0364 9.22
    endloop
  endfacet
  facet normal 2.22045e-16 0.866025 -0.5
    outer loop
      vertex 62.3 55.9487 2.14
      vertex 56.3 58.1773 6
      vertex 62.3 60.0364 9.22
    endloop
  endfacet
  facet normal 2.22045e-16 0.866025 -0.5
    outer loop
      vertex 0 58.1773 6
      vertex 56.3 58.1773 6
      vertex 62.3 55.9487 2.14
    endloop
  endfacet
  facet normal 2.22045e-16 0.866025 -0.5
    outer loop
      vertex -6 60.0364 9.22
      vertex 0 58.1773 6
      vertex -6 55.9487 2.14
    endloop
  endfacet
  facet normal -1.11022e-16 -9.97219e-09 1
    outer loop
      vertex 62.3 55.9487 2.14
      vertex 62.3 64.124 2.14
      vertex -6 64.124 2.14
    endloop
  endfacet
  facet normal -1.11022e-16 -9.97219e-09 1
    outer loop
      vertex -6 55.9487 2.14
      vertex 62.3 55.9487 2.14
      vertex -6 64.124 2.14
    endloop
  endfacet
  facet normal 2.22045e-16 0.866025 -0.5
    outer loop
      vertex 0 75.0455 9.22
      vertex 0 73.1864 6
      vertex -6 75.0455 9.22
    endloop
  endfacet
  facet normal 2.22045e-16 0.866025 -0.5
    outer loop
      vertex -6 70.9578 2.14
      vertex 0 73.1864 6
      vertex 62.3 70.9578 2.14
    endloop
  endfacet
  facet normal 2.22045e-16 0.866025 -0.5
    outer loop
      vertex 62.3 75.0455 9.22
      vertex 56.3 73.1864 6
      vertex 56.3 75.0455 9.22
    endloop
  endfacet
  facet normal 2.22045e-16 0.866025 -0.5
    outer loop
      vertex 62.3 70.9578 2.14
      vertex 56.3 73.1864 6
      vertex 62.3 75.0455 9.22
    endloop
  endfacet
  facet normal 2.22045e-16 0.866025 -0.5
    outer loop
      vertex 0 73.1864 6
      vertex 56.3 73.1864 6
      vertex 62.3 70.9578 2.14
    endloop
  endfacet
  facet normal 2.22045e-16 0.866025 -0.5
    outer loop
      vertex -6 75.0455 9.22
      vertex 0 73.1864 6
      vertex -6 70.9578 2.14
    endloop
  endfacet
  facet normal -1.11022e-16 -0.866025 -0.5
    outer loop
      vertex 56.3 76.9045 6
      vertex 62.3 79.1331 2.14
      vertex 62.3 75.0455 9.22
    endloop
  endfacet
  facet normal -1.11022e-16 -0.866025 -0.5
    outer loop
      vertex 56.3 76.9045 6
      vertex 0 76.9045 6
      vertex -6 79.1331 2.14
    endloop
  endfacet
  facet normal -1.11022e-16 -0.866025 -0.5
    outer loop
      vertex -6 79.1331 2.14
      vertex 62.3 79.1331 2.14
      vertex 56.3 76.9045 6
    endloop
  endfacet
  facet normal -1.11022e-16 -0.866025 -0.5
    outer loop
      vertex 0 75.0455 9.22
      vertex -6 79.1331 2.14
      vertex 0 76.9045 6
    endloop
  endfacet
  facet normal -1.11022e-16 -0.866025 -0.5
    outer loop
      vertex -6 75.0455 9.22
      vertex -6 79.1331 2.14
      vertex 0 75.0455 9.22
    endloop
  endfacet
  facet normal -1.11022e-16 -0.866025 -0.5
    outer loop
      vertex 56.3 75.0455 9.22
      vertex 56.3 76.9045 6
      vertex 62.3 75.0455 9.22
    endloop
  endfacet
  facet normal -1.11022e-16 -9.97219e-09 1
    outer loop
      vertex 62.3 70.9578 2.14
      vertex 62.3 79.1331 2.14
      vertex -6 79.1331 2.14
    endloop
  endfacet
  facet normal -1.11022e-16 -9.97219e-09 1
    outer loop
      vertex -6 70.9578 2.14
      vertex 62.3 70.9578 2.14
      vertex -6 79.1331 2.14
    endloop
  endfacet
  facet normal -1.11022e-16 -0.866025 -0.5
    outer loop
      vertex 56.3 91.9136 6
      vertex 62.3 94.1422 2.14
      vertex 62.3 90.0545 9.22
    endloop
  endfacet
  facet normal -1.11022e-16 -0.866025 -0.5
    outer loop
      vertex 56.3 91.9136 6
      vertex 0 91.9136 6
      vertex -6 94.1422 2.14
    endloop
  endfacet
  facet normal -1.11022e-16 -0.866025 -0.5
    outer loop
      vertex -6 94.1422 2.14
      vertex 62.3 94.1422 2.14
      vertex 56.3 91.9136 6
    endloop
  endfacet
  facet normal -1.11022e-16 -0.866025 -0.5
    outer loop
      vertex 0 90.0545 9.22
      vertex -6 94.1422 2.14
      vertex 0 91.9136 6
    endloop
  endfacet
  facet normal -1.11022e-16 -0.866025 -0.5
    outer loop
      vertex -6 90.0545 9.22
      vertex -6 94.1422 2.14
      vertex 0 90.0545 9.22
    endloop
  endfacet
  facet normal -1.11022e-16 -0.866025 -0.5
    outer loop
      vertex 56.3 90.0545 9.22
      vertex 56.3 91.9136 6
      vertex 62.3 90.0545 9.22
    endloop
  endfacet
  facet normal 2.22045e-16 0.866025 -0.5
    outer loop
      vertex 0 90.0545 9.22
      vertex 0 88.1955 6
      vertex -6 90.0545 9.22
    endloop
  endfacet
  facet normal 2.22045e-16 0.866025 -0.5
    outer loop
      vertex -6 85.9669 2.14
      vertex 0 88.1955 6
      vertex 62.3 85.9669 2.14
    endloop
  endfacet
  facet normal 2.22045e-16 0.866025 -0.5
    outer loop
      vertex 62.3 90.0545 9.22
      vertex 56.3 88.1955 6
      vertex 56.3 90.0545 9.22
    endloop
  endfacet
  facet normal 2.22045e-16 0.866025 -0.5
    outer loop
      vertex 62.3 85.9669 2.14
      vertex 56.3 88.1955 6
      vertex 62.3 90.0545 9.22
    endloop
  endfacet
  facet normal 2.22045e-16 0.866025 -0.5
    outer loop
      vertex 0 88.1955 6
      vertex 56.3 88.1955 6
      vertex 62.3 85.9669 2.14
    endloop
  endfacet
  facet normal 2.22045e-16 0.866025 -0.5
    outer loop
      vertex -6 90.0545 9.22
      vertex 0 88.1955 6
      vertex -6 85.9669 2.14
    endloop
  endfacet
  facet normal -1.11022e-16 -9.97219e-09 1
    outer loop
      vertex 62.3 85.9669 2.14
      vertex 62.3 94.1422 2.14
      vertex -6 94.1422 2.14
    endloop
  endfacet
  facet normal -1.11022e-16 -9.97219e-09 1
    outer loop
      vertex -6 85.9669 2.14
      vertex 62.3 85.9669 2.14
      vertex -6 94.1422 2.14
    endloop
  endfacet
  facet normal 2.22045e-16 0.866025 -0.5
    outer loop
      vertex 0 105.064 9.22
      vertex 0 103.205 6
      vertex -6 105.064 9.22
    endloop
  endfacet
  facet normal 2.22045e-16 0.866025 -0.5
    outer loop
      vertex -6 100.976 2.14
      vertex 0 103.205 6
      vertex 62.3 100.976 2.14
    endloop
  endfacet
  facet normal 2.22045e-16 0.866025 -0.5
    outer loop
      vertex 62.3 105.064 9.22
      vertex 56.3 103.205 6
      vertex 56.3 105.064 9.22
    endloop
  endfacet
  facet normal 2.22045e-16 0.866025 -0.5
    outer loop
      vertex 62.3 100.976 2.14
      vertex 56.3 103.205 6
      vertex 62.3 105.064 9.22
    endloop
  endfacet
  facet normal 2.22045e-16 0.866025 -0.5
    outer loop
      vertex 0 103.205 6
      vertex 56.3 103.205 6
      vertex 62.3 100.976 2.14
    endloop
  endfacet
  facet normal 2.22045e-16 0.866025 -0.5
    outer loop
      vertex -6 105.064 9.22
      vertex 0 103.205 6
      vertex -6 100.976 2.14
    endloop
  endfacet
  facet normal -1.11022e-16 -0.866025 -0.5
    outer loop
      vertex 56.3 106.923 6
      vertex 62.3 109.151 2.14
      vertex 62.3 105.064 9.22
    endloop
  endfacet
  facet normal -1.11022e-16 -0.866025 -0.5
    outer loop
      vertex 56.3 106.923 6
      vertex 0 106.923 6
      vertex -6 109.151 2.14
    endloop
  endfacet
  facet normal -1.11022e-16 -0.866025 -0.5
    outer loop
      vertex -6 109.151 2.14
      vertex 62.3 109.151 2.14
      vertex 56.3 106.923 6
    endloop
  endfacet
  facet normal -1.11022e-16 -0.866025 -0.5
    outer loop
      vertex 0 105.064 9.22
      vertex -6 109.151 2.14
      vertex 0 106.923 6
    endloop
  endfacet
  facet normal -1.11022e-16 -0.866025 -0.5
    outer loop
      vertex -6 105.064 9.22
      vertex -6 109.151 2.14
      vertex 0 105.064 9.22
    endloop
  endfacet
  facet normal -1.11022e-16 -0.866025 -0.5
    outer loop
      vertex 56.3 105.064 9.22
      vertex 56.3 106.923 6
      vertex 62.3 105.064 9.22
    endloop
  endfacet
  facet normal -1.11022e-16 -9.97219e-09 1
    outer loop
      vertex 62.3 100.976 2.14
      vertex 62.3 109.151 2.14
      vertex -6 109.151 2.14
    endloop
  endfacet
  facet normal -1.11022e-16 -9.97219e-09 1
    outer loop
      vertex -6 100.976 2.14
      vertex 62.3 100.976 2.14
      vertex -6 109.151 2.14
    endloop
  endfacet
  facet normal -1.11022e-16 -0.866025 -0.5
    outer loop
      vertex 56.3 121.932 6
      vertex 62.3 124.16 2.14
      vertex 62.3 120.073 9.22
    endloop
  endfacet
  facet normal -1.11022e-16 -0.866025 -0.5
    outer loop
      vertex 56.3 121.932 6
      vertex 0 121.932 6
      vertex -6 124.16 2.14
    endloop
  endfacet
  facet normal -1.11022e-16 -0.866025 -0.5
    outer loop
      vertex -6 124.16 2.14
      vertex 62.3 124.16 2.14
      vertex 56.3 121.932 6
    endloop
  endfacet
  facet normal -1.11022e-16 -0.866025 -0.5
    outer loop
      vertex 0 120.073 9.22
      vertex -6 124.16 2.14
      vertex 0 121.932 6
    endloop
  endfacet
  facet normal -1.11022e-16 -0.866025 -0.5
    outer loop
      vertex -6 120.073 9.22
      vertex -6 124.16 2.14
      vertex 0 120.073 9.22
    endloop
  endfacet
  facet normal -1.11022e-16 -0.866025 -0.5
    outer loop
      vertex 56.3 120.073 9.22
      vertex 56.3 121.932 6
      vertex 62.3 120.073 9.22
    endloop
  endfacet
  facet normal 2.22045e-16 0.866025 -0.5
    outer loop
      vertex 0 120.073 9.22
      vertex 0 118.214 6
      vertex -6 120.073 9.22
    endloop
  endfacet
  facet normal 2.22045e-16 0.866025 -0.5
    outer loop
      vertex -6 115.985 2.14
      vertex 0 118.214 6
      vertex 62.3 115.985 2.14
    endloop
  endfacet
  facet normal 2.22045e-16 0.866025 -0.5
    outer loop
      vertex 62.3 120.073 9.22
      vertex 56.3 118.214 6
      vertex 56.3 120.073 9.22
    endloop
  endfacet
  facet normal 2.22045e-16 0.866025 -0.5
    outer loop
      vertex 62.3 115.985 2.14
      vertex 56.3 118.214 6
      vertex 62.3 120.073 9.22
    endloop
  endfacet
  facet normal 2.22045e-16 0.866025 -0.5
    outer loop
      vertex 0 118.214 6
      vertex 56.3 118.214 6
      vertex 62.3 115.985 2.14
    endloop
  endfacet
  facet normal 2.22045e-16 0.866025 -0.5
    outer loop
      vertex -6 120.073 9.22
      vertex 0 118.214 6
      vertex -6 115.985 2.14
    endloop
  endfacet
  facet normal -1.11022e-16 -9.97219e-09 1
    outer loop
      vertex 62.3 115.985 2.14
      vertex 62.3 124.16 2.14
      vertex -6 124.16 2.14
    endloop
  endfacet
  facet normal -1.11022e-16 -9.97219e-09 1
    outer loop
      vertex -6 115.985 2.14
      vertex 62.3 115.985 2.14
      vertex -6 124.16 2.14
    endloop
  endfacet
  facet normal -1.11022e-16 -0.866025 -0.5
    outer loop
      vertex 56.3 136.941 6
      vertex 62.3 139.169 2.14
      vertex 62.3 135.082 9.22
    endloop
  endfacet
  facet normal -1.11022e-16 -0.866025 -0.5
    outer loop
      vertex 56.3 136.941 6
      vertex 0 136.941 6
      vertex -6 139.169 2.14
    endloop
  endfacet
  facet normal -1.11022e-16 -0.866025 -0.5
    outer loop
      vertex -6 139.169 2.14
      vertex 62.3 139.169 2.14
      vertex 56.3 136.941 6
    endloop
  endfacet
  facet normal -1.11022e-16 -0.866025 -0.5
    outer loop
      vertex 0 135.082 9.22
      vertex -6 139.169 2.14
      vertex 0 136.941 6
    endloop
  endfacet
  facet normal -1.11022e-16 -0.866025 -0.5
    outer loop
      vertex -6 135.082 9.22
      vertex -6 139.169 2.14
      vertex 0 135.082 9.22
    endloop
  endfacet
  facet normal -1.11022e-16 -0.866025 -0.5
    outer loop
      vertex 56.3 135.082 9.22
      vertex 56.3 136.941 6
      vertex 62.3 135.082 9.22
    endloop
  endfacet
  facet normal 2.22045e-16 0.866025 -0.5
    outer loop
      vertex 0 135.082 9.22
      vertex 0 133.223 6
      vertex -6 135.082 9.22
    endloop
  endfacet
  facet normal 2.22045e-16 0.866025 -0.5
    outer loop
      vertex -6 130.994 2.14
      vertex 0 133.223 6
      vertex 62.3 130.994 2.14
    endloop
  endfacet
  facet normal 2.22045e-16 0.866025 -0.5
    outer loop
      vertex 62.3 135.082 9.22
      vertex 56.3 133.223 6
      vertex 56.3 135.082 9.22
    endloop
  endfacet
  facet normal 2.22045e-16 0.866025 -0.5
    outer loop
      vertex 62.3 130.994 2.14
      vertex 56.3 133.223 6
      vertex 62.3 135.082 9.22
    endloop
  endfacet
  facet normal 2.22045e-16 0.866025 -0.5
    outer loop
      vertex 0 133.223 6
      vertex 56.3 133.223 6
      vertex 62.3 130.994 2.14
    endloop
  endfacet
  facet normal 2.22045e-16 0.866025 -0.5
    outer loop
      vertex -6 135.082 9.22
      vertex 0 133.223 6
      vertex -6 130.994 2.14
    endloop
  endfacet
  facet normal -1.11022e-16 -9.97219e-09 1
    outer loop
      vertex 62.3 130.994 2.14
      vertex 62.3 139.169 2.14
      vertex -6 139.169 2.14
    endloop
  endfacet
  facet normal -1.11022e-16 -9.97219e-09 1
    outer loop
      vertex -6 130.994 2.14
      vertex 62.3 130.994 2.14
      vertex -6 139.169 2.14
    endloop
  endfacet
  facet normal 2.22045e-16 0.866025 -0.5
    outer loop
      vertex 0 150.091 9.22
      vertex 0 148.232 6
      vertex -6 150.091 9.22
    endloop
  endfacet
  facet normal 2.22045e-16 0.866025 -0.5
    outer loop
      vertex -6 146.003 2.14
      vertex 0 148.232 6
      vertex 62.3 146.003 2.14
    endloop
  endfacet
  facet normal 2.22045e-16 0.866025 -0.5
    outer loop
      vertex 62.3 150.091 9.22
      vertex 56.3 148.232 6
      vertex 56.3 150.091 9.22
    endloop
  endfacet
  facet normal 2.22045e-16 0.866025 -0.5
    outer loop
      vertex 62.3 146.003 2.14
      vertex 56.3 148.232 6
      vertex 62.3 150.091 9.22
    endloop
  endfacet
  facet normal 2.22045e-16 0.866025 -0.5
    outer loop
      vertex 0 148.232 6
      vertex 56.3 148.232 6
      vertex 62.3 146.003 2.14
    endloop
  endfacet
  facet normal 2.22045e-16 0.866025 -0.5
    outer loop
      vertex -6 150.091 9.22
      vertex 0 148.232 6
      vertex -6 146.003 2.14
    endloop
  endfacet
  facet normal -1.11022e-16 -0.866025 -0.5
    outer loop
      vertex 56.3 151.95 6
      vertex 62.3 154.179 2.14
      vertex 62.3 150.091 9.22
    endloop
  endfacet
  facet normal -1.11022e-16 -0.866025 -0.5
    outer loop
      vertex 56.3 151.95 6
      vertex 0 151.95 6
      vertex -6 154.179 2.14
    endloop
  endfacet
  facet normal -1.11022e-16 -0.866025 -0.5
    outer loop
      vertex -6 154.179 2.14
      vertex 62.3 154.179 2.14
      vertex 56.3 151.95 6
    endloop
  endfacet
  facet normal -1.11022e-16 -0.866025 -0.5
    outer loop
      vertex 0 150.091 9.22
      vertex -6 154.179 2.14
      vertex 0 151.95 6
    endloop
  endfacet
  facet normal -1.11022e-16 -0.866025 -0.5
    outer loop
      vertex -6 150.091 9.22
      vertex -6 154.179 2.14
      vertex 0 150.091 9.22
    endloop
  endfacet
  facet normal -1.11022e-16 -0.866025 -0.5
    outer loop
      vertex 56.3 150.091 9.22
      vertex 56.3 151.95 6
      vertex 62.3 150.091 9.22
    endloop
  endfacet
  facet normal -1.11022e-16 -9.97219e-09 1
    outer loop
      vertex 62.3 146.003 2.14
      vertex 62.3 154.179 2.14
      vertex -6 154.179 2.14
    endloop
  endfacet
  facet normal -1.11022e-16 -9.97219e-09 1
    outer loop
      vertex -6 146.003 2.14
      vertex 62.3 146.003 2.14
      vertex -6 154.179 2.14
    endloop
  endfacet
  facet normal -1 0 -1.22465e-16
    outer loop
      vertex -5.4 165.1 9.5
      vertex -5.4 0 9.5
      vertex -5.4 165.1 11
    endloop
  endfacet
  facet normal -1 0 -1.22465e-16
    outer loop
      vertex -5.4 165.1 11
      vertex -5.4 0 9.5
      vertex -5.4 0 11
    endloop
  endfacet
  facet normal -0.707107 0 0.707107
    outer loop
      vertex -3.9 165.1 12.5
      vertex -5.4 165.1 11
      vertex -3.9 0 12.5
    endloop
  endfacet
  facet normal -0.707107 0 0.707107
    outer loop
      vertex -3.9 0 12.5
      vertex -5.4 165.1 11
      vertex -5.4 0 11
    endloop
  endfacet
  facet normal -0.707107 0 -0.707107
    outer loop
      vertex -3.9 165.1 12.5
      vertex -3.9 0 12.5
      vertex -5.4 165.1 14
    endloop
  endfacet
  facet normal -0.707107 0 -0.707107
    outer loop
      vertex -5.4 165.1 14
      vertex -3.9 0 12.5
      vertex -5.4 0 14
    endloop
  endfacet
  facet normal -1 0 -1.22465e-16
    outer loop
      vertex -5.4 165.1 14
      vertex -5.4 0 14
      vertex -5.4 165.1 15.5
    endloop
  endfacet
  facet normal -1 0 -1.22465e-16
    outer loop
      vertex -5.4 165.1 15.5
      vertex -5.4 0 14
      vertex -5.4 0 15.5
    endloop
  endfacet
  facet normal -1.22465e-16 0 1
    outer loop
      vertex -5.4 165.1 15.5
      vertex -5.4 0 15.5
      vertex 0 0 15.5
    endloop
  endfacet
  facet normal -1.22465e-16 0 1
    outer loop
      vertex 0 165.1 15.5
      vertex -5.4 165.1 15.5
      vertex 0 0 15.5
    endloop
  endfacet
  facet normal 1 0 0
    outer loop
      vertex 0 28.1591 6
      vertex 0 15.0091 9.22
      vertex 0 16.8682 6
    endloop
  endfacet
  facet normal 1 0 0
    outer loop
      vertex 0 30.0182 9.22
      vertex 0 15.0091 9.22
      vertex 0 28.1591 6
    endloop
  endfacet
  facet normal 1 0 0
    outer loop
      vertex 0 13.15 6
      vertex 0 15.0091 9.22
      vertex 0 0 15.5
    endloop
  endfacet
  facet normal 1 0 0
    outer loop
      vertex 0 165.1 15.5
      vertex 0 15.0091 9.22
      vertex 0 30.0182 9.22
    endloop
  endfacet
  facet normal 1 0 0
    outer loop
      vertex 0 43.1682 6
      vertex 0 30.0182 9.22
      vertex 0 31.8772 6
    endloop
  endfacet
  facet normal 1 0 0
    outer loop
      vertex 0 45.0273 9.22
      vertex 0 30.0182 9.22
      vertex 0 43.1682 6
    endloop
  endfacet
  facet normal 1 0 0
    outer loop
      vertex 0 165.1 15.5
      vertex 0 30.0182 9.22
      vertex 0 45.0273 9.22
    endloop
  endfacet
  facet normal 1 0 0
    outer loop
      vertex 0 58.1773 6
      vertex 0 45.0273 9.22
      vertex 0 46.8863 6
    endloop
  endfacet
  facet normal 1 0 0
    outer loop
      vertex 0 60.0364 9.22
      vertex 0 45.0273 9.22
      vertex 0 58.1773 6
    endloop
  endfacet
  facet normal 1 0 0
    outer loop
      vertex 0 165.1 15.5
      vertex 0 45.0273 9.22
      vertex 0 60.0364 9.22
    endloop
  endfacet
  facet normal 1 0 0
    outer loop
      vertex 0 73.1864 6
      vertex 0 60.0364 9.22
      vertex 0 61.8954 6
    endloop
  endfacet
  facet normal 1 0 0
    outer loop
      vertex 0 75.0455 9.22
      vertex 0 60.0364 9.22
      vertex 0 73.1864 6
    endloop
  endfacet
  facet normal 1 0 0
    outer loop
      vertex 0 165.1 15.5
      vertex 0 60.0364 9.22
      vertex 0 75.0455 9.22
    endloop
  endfacet
  facet normal 1 0 0
    outer loop
      vertex 0 88.1955 6
      vertex 0 75.0455 9.22
      vertex 0 76.9045 6
    endloop
  endfacet
  facet normal 1 0 0
    outer loop
      vertex 0 90.0545 9.22
      vertex 0 75.0455 9.22
      vertex 0 88.1955 6
    endloop
  endfacet
  facet normal 1 0 0
    outer loop
      vertex 0 165.1 15.5
      vertex 0 75.0455 9.22
      vertex 0 90.0545 9.22
    endloop
  endfacet
  facet normal 1 0 0
    outer loop
      vertex 0 103.205 6
      vertex 0 90.0545 9.22
      vertex 0 91.9136 6
    endloop
  endfacet
  facet normal 1 0 0
    outer loop
      vertex 0 105.064 9.22
      vertex 0 90.0545 9.22
      vertex 0 103.205 6
    endloop
  endfacet
  facet normal 1 0 0
    outer loop
      vertex 0 165.1 15.5
      vertex 0 90.0545 9.22
      vertex 0 105.064 9.22
    endloop
  endfacet
  facet normal 1 0 0
    outer loop
      vertex 0 118.214 6
      vertex 0 105.064 9.22
      vertex 0 106.923 6
    endloop
  endfacet
  facet normal 1 0 0
    outer loop
      vertex 0 120.073 9.22
      vertex 0 105.064 9.22
      vertex 0 118.214 6
    endloop
  endfacet
  facet normal 1 0 0
    outer loop
      vertex 0 165.1 15.5
      vertex 0 105.064 9.22
      vertex 0 120.073 9.22
    endloop
  endfacet
  facet normal 1 0 0
    outer loop
      vertex 0 133.223 6
      vertex 0 120.073 9.22
      vertex 0 121.932 6
    endloop
  endfacet
  facet normal 1 0 0
    outer loop
      vertex 0 135.082 9.22
      vertex 0 120.073 9.22
      vertex 0 133.223 6
    endloop
  endfacet
  facet normal 1 0 0
    outer loop
      vertex 0 165.1 15.5
      vertex 0 120.073 9.22
      vertex 0 135.082 9.22
    endloop
  endfacet
  facet normal 1 0 0
    outer loop
      vertex 0 148.232 6
      vertex 0 135.082 9.22
      vertex 0 136.941 6
    endloop
  endfacet
  facet normal 1 0 0
    outer loop
      vertex 0 150.091 9.22
      vertex 0 135.082 9.22
      vertex 0 148.232 6
    endloop
  endfacet
  facet normal 1 0 0
    outer loop
      vertex 0 165.1 15.5
      vertex 0 135.082 9.22
      vertex 0 150.091 9.22
    endloop
  endfacet
  facet normal 1 0 0
    outer loop
      vertex 0 165.1 6
      vertex 0 150.091 9.22
      vertex 0 151.95 6
    endloop
  endfacet
  facet normal 1 0 0
    outer loop
      vertex 0 165.1 15.5
      vertex 0 150.091 9.22
      vertex 0 165.1 6
    endloop
  endfacet
  facet normal 1 0 0
    outer loop
      vertex 0 0 15.5
      vertex 0 15.0091 9.22
      vertex 0 165.1 15.5
    endloop
  endfacet
  facet normal 1 0 0
    outer loop
      vertex 0 0 6
      vertex 0 13.15 6
      vertex 0 0 15.5
    endloop
  endfacet
  facet normal 0 0 1
    outer loop
      vertex 56.3 0 6
      vertex 56.3 13.15 6
      vertex 0 13.15 6
    endloop
  endfacet
  facet normal 0 0 1
    outer loop
      vertex 0 0 6
      vertex 56.3 0 6
      vertex 0 13.15 6
    endloop
  endfacet
  facet normal -1 0 0
    outer loop
      vertex 56.3 90.0545 9.22
      vertex 56.3 0 15.5
      vertex 56.3 105.064 9.22
    endloop
  endfacet
  facet normal -1 0 0
    outer loop
      vertex 56.3 165.1 15.5
      vertex 56.3 165.1 6
      vertex 56.3 150.091 9.22
    endloop
  endfacet
  facet normal -1 0 0
    outer loop
      vertex 56.3 165.1 15.5
      vertex 56.3 150.091 9.22
      vertex 56.3 0 15.5
    endloop
  endfacet
  facet normal -1 0 0
    outer loop
      vertex 56.3 135.082 9.22
      vertex 56.3 148.232 6
      vertex 56.3 136.941 6
    endloop
  endfacet
  facet normal -1 0 0
    outer loop
      vertex 56.3 133.223 6
      vertex 56.3 120.073 9.22
      vertex 56.3 135.082 9.22
    endloop
  endfacet
  facet normal -1 0 0
    outer loop
      vertex 56.3 60.0364 9.22
      vertex 56.3 0 15.5
      vertex 56.3 75.0455 9.22
    endloop
  endfacet
  facet normal -1 0 0
    outer loop
      vertex 56.3 150.091 9.22
      vertex 56.3 135.082 9.22
      vertex 56.3 0 15.5
    endloop
  endfacet
  facet normal -1 0 0
    outer loop
      vertex 56.3 120.073 9.22
      vertex 56.3 133.223 6
      vertex 56.3 121.932 6
    endloop
  endfacet
  facet normal -1 0 0
    outer loop
      vertex 56.3 30.0182 9.22
      vertex 56.3 0 15.5
      vertex 56.3 45.0273 9.22
    endloop
  endfacet
  facet normal -1 0 0
    outer loop
      vertex 56.3 135.082 9.22
      vertex 56.3 120.073 9.22
      vertex 56.3 0 15.5
    endloop
  endfacet
  facet normal -1 0 0
    outer loop
      vertex 56.3 105.064 9.22
      vertex 56.3 118.214 6
      vertex 56.3 106.923 6
    endloop
  endfacet
  facet normal -1 0 0
    outer loop
      vertex 56.3 148.232 6
      vertex 56.3 135.082 9.22
      vertex 56.3 150.091 9.22
    endloop
  endfacet
  facet normal -1 0 0
    outer loop
      vertex 56.3 90.0545 9.22
      vertex 56.3 103.205 6
      vertex 56.3 91.9136 6
    endloop
  endfacet
  facet normal -1 0 0
    outer loop
      vertex 56.3 88.1955 6
      vertex 56.3 75.0455 9.22
      vertex 56.3 90.0545 9.22
    endloop
  endfacet
  facet normal -1 0 0
    outer loop
      vertex 56.3 75.0455 9.22
      vertex 56.3 0 15.5
      vertex 56.3 90.0545 9.22
    endloop
  endfacet
  facet normal -1 0 0
    outer loop
      vertex 56.3 118.214 6
      vertex 56.3 105.064 9.22
      vertex 56.3 120.073 9.22
    endloop
  endfacet
  facet normal -1 0 0
    outer loop
      vertex 56.3 75.0455 9.22
      vertex 56.3 88.1955 6
      vertex 56.3 76.9045 6
    endloop
  endfacet
  facet normal -1 0 0
    outer loop
      vertex 56.3 103.205 6
      vertex 56.3 90.0545 9.22
      vertex 56.3 105.064 9.22
    endloop
  endfacet
  facet normal -1 0 0
    outer loop
      vertex 56.3 60.0364 9.22
      vertex 56.3 73.1864 6
      vertex 56.3 61.8954 6
    endloop
  endfacet
  facet normal -1 0 0
    outer loop
      vertex 56.3 45.0273 9.22
      vertex 56.3 0 15.5
      vertex 56.3 60.0364 9.22
    endloop
  endfacet
  facet normal -1 0 0
    outer loop
      vertex 56.3 73.1864 6
      vertex 56.3 60.0364 9.22
      vertex 56.3 75.0455 9.22
    endloop
  endfacet
  facet normal -1 0 0
    outer loop
      vertex 56.3 45.0273 9.22
      vertex 56.3 58.1773 6
      vertex 56.3 46.8863 6
    endloop
  endfacet
  facet normal -1 0 0
    outer loop
      vertex 56.3 43.1682 6
      vertex 56.3 30.0182 9.22
      vertex 56.3 45.0273 9.22
    endloop
  endfacet
  facet normal -1 0 0
    outer loop
      vertex 56.3 58.1773 6
      vertex 56.3 45.0273 9.22
      vertex 56.3 60.0364 9.22
    endloop
  endfacet
  facet normal -1 0 0
    outer loop
      vertex 56.3 30.0182 9.22
      vertex 56.3 43.1682 6
      vertex 56.3 31.8772 6
    endloop
  endfacet
  facet normal -1 0 0
    outer loop
      vertex 56.3 28.1591 6
      vertex 56.3 0 15.5
      vertex 56.3 30.0182 9.22
    endloop
  endfacet
  facet normal -1 0 0
    outer loop
      vertex 56.3 13.15 6
      vertex 56.3 0 15.5
      vertex 56.3 15.0091 9.22
    endloop
  endfacet
  facet normal -1 0 0
    outer loop
      vertex 56.3 15.0091 9.22
      vertex 56.3 28.1591 6
      vertex 56.3 16.8682 6
    endloop
  endfacet
  facet normal -1 0 0
    outer loop
      vertex 56.3 0 15.5
      vertex 56.3 28.1591 6
      vertex 56.3 15.0091 9.22
    endloop
  endfacet
  facet normal -1 0 0
    outer loop
      vertex 56.3 0 15.5
      vertex 56.3 13.15 6
      vertex 56.3 0 6
    endloop
  endfacet
  facet normal -1 0 0
    outer loop
      vertex 56.3 150.091 9.22
      vertex 56.3 165.1 6
      vertex 56.3 151.95 6
    endloop
  endfacet
  facet normal -1 0 0
    outer loop
      vertex 56.3 105.064 9.22
      vertex 56.3 0 15.5
      vertex 56.3 120.073 9.22
    endloop
  endfacet
  facet normal 0 0 1
    outer loop
      vertex 56.3 165.1 15.5
      vertex 56.3 0 15.5
      vertex 61.7 0 15.5
    endloop
  endfacet
  facet normal 0 0 1
    outer loop
      vertex 61.7 165.1 15.5
      vertex 56.3 165.1 15.5
      vertex 61.7 0 15.5
    endloop
  endfacet
  facet normal 1 0 0
    outer loop
      vertex 61.7 165.1 14
      vertex 61.7 165.1 15.5
      vertex 61.7 0 15.5
    endloop
  endfacet
  facet normal 1 0 0
    outer loop
      vertex 61.7 0 14
      vertex 61.7 165.1 14
      vertex 61.7 0 15.5
    endloop
  endfacet
  facet normal 0.707107 0 -0.707107
    outer loop
      vertex 61.7 165.1 14
      vertex 61.7 0 14
      vertex 60.2 165.1 12.5
    endloop
  endfacet
  facet normal 0.707107 0 -0.707107
    outer loop
      vertex 60.2 165.1 12.5
      vertex 61.7 0 14
      vertex 60.2 0 12.5
    endloop
  endfacet
  facet normal 0.707107 0 0.707107
    outer loop
      vertex 61.7 0 11
      vertex 61.7 165.1 11
      vertex 60.2 165.1 12.5
    endloop
  endfacet
  facet normal 0.707107 0 0.707107
    outer loop
      vertex 60.2 0 12.5
      vertex 61.7 0 11
      vertex 60.2 165.1 12.5
    endloop
  endfacet
  facet normal 1 0 0
    outer loop
      vertex 61.7 165.1 9.5
      vertex 61.7 165.1 11
      vertex 61.7 0 11
    endloop
  endfacet
  facet normal 1 0 0
    outer loop
      vertex 61.7 0 9.5
      vertex 61.7 165.1 9.5
      vertex 61.7 0 11
    endloop
  endfacet
  facet normal 0 0 1
    outer loop
      vertex 62.3 0 9.5
      vertex 62.3 165.1 9.5
      vertex 61.7 165.1 9.5
    endloop
  endfacet
  facet normal 0 0 1
    outer loop
      vertex 61.7 0 9.5
      vertex 62.3 0 9.5
      vertex 61.7 165.1 9.5
    endloop
  endfacet
  facet normal 1 0 0
    outer loop
      vertex 62.3 10.9215 2.14
      vertex 62.3 0 0
      vertex 62.3 165.1 0
    endloop
  endfacet
  facet normal 1 0 0
    outer loop
      vertex 62.3 130.994 2.14
      vertex 62.3 124.16 2.14
      vertex 62.3 165.1 0
    endloop
  endfacet
  facet normal 1 0 0
    outer loop
      vertex 62.3 19.0967 2.14
      vertex 62.3 10.9215 2.14
      vertex 62.3 165.1 0
    endloop
  endfacet
  facet normal 1 0 0
    outer loop
      vertex 62.3 0 9.5
      vertex 62.3 0 0
      vertex 62.3 10.9215 2.14
    endloop
  endfacet
  facet normal 1 0 0
    outer loop
      vertex 62.3 105.064 9.22
      vertex 62.3 109.151 2.14
      vertex 62.3 115.985 2.14
    endloop
  endfacet
  facet normal 1 0 0
    outer loop
      vertex 62.3 165.1 9.5
      vertex 62.3 0 9.5
      vertex 62.3 15.0091 9.22
    endloop
  endfacet
  facet normal 1 0 0
    outer loop
      vertex 62.3 25.9305 2.14
      vertex 62.3 19.0967 2.14
      vertex 62.3 165.1 0
    endloop
  endfacet
  facet normal 1 0 0
    outer loop
      vertex 62.3 34.1058 2.14
      vertex 62.3 25.9305 2.14
      vertex 62.3 165.1 0
    endloop
  endfacet
  facet normal 1 0 0
    outer loop
      vertex 62.3 25.9305 2.14
      vertex 62.3 30.0182 9.22
      vertex 62.3 15.0091 9.22
    endloop
  endfacet
  facet normal 1 0 0
    outer loop
      vertex 62.3 139.169 2.14
      vertex 62.3 130.994 2.14
      vertex 62.3 165.1 0
    endloop
  endfacet
  facet normal 1 0 0
    outer loop
      vertex 62.3 165.1 9.5
      vertex 62.3 15.0091 9.22
      vertex 62.3 30.0182 9.22
    endloop
  endfacet
  facet normal 1 0 0
    outer loop
      vertex 62.3 40.9396 2.14
      vertex 62.3 34.1058 2.14
      vertex 62.3 165.1 0
    endloop
  endfacet
  facet normal 1 0 0
    outer loop
      vertex 62.3 49.1149 2.14
      vertex 62.3 40.9396 2.14
      vertex 62.3 165.1 0
    endloop
  endfacet
  facet normal 1 0 0
    outer loop
      vertex 62.3 30.0182 9.22
      vertex 62.3 34.1058 2.14
      vertex 62.3 40.9396 2.14
    endloop
  endfacet
  facet normal 1 0 0
    outer loop
      vertex 62.3 165.1 9.5
      vertex 62.3 30.0182 9.22
      vertex 62.3 45.0273 9.22
    endloop
  endfacet
  facet normal 1 0 0
    outer loop
      vertex 62.3 55.9487 2.14
      vertex 62.3 49.1149 2.14
      vertex 62.3 165.1 0
    endloop
  endfacet
  facet normal 1 0 0
    outer loop
      vertex 62.3 64.124 2.14
      vertex 62.3 55.9487 2.14
      vertex 62.3 165.1 0
    endloop
  endfacet
  facet normal 1 0 0
    outer loop
      vertex 62.3 55.9487 2.14
      vertex 62.3 60.0364 9.22
      vertex 62.3 45.0273 9.22
    endloop
  endfacet
  facet normal 1 0 0
    outer loop
      vertex 62.3 146.003 2.14
      vertex 62.3 139.169 2.14
      vertex 62.3 165.1 0
    endloop
  endfacet
  facet normal 1 0 0
    outer loop
      vertex 62.3 165.1 9.5
      vertex 62.3 45.0273 9.22
      vertex 62.3 60.0364 9.22
    endloop
  endfacet
  facet normal 1 0 0
    outer loop
      vertex 62.3 70.9578 2.14
      vertex 62.3 64.124 2.14
      vertex 62.3 165.1 0
    endloop
  endfacet
  facet normal 1 0 0
    outer loop
      vertex 62.3 79.1331 2.14
      vertex 62.3 70.9578 2.14
      vertex 62.3 165.1 0
    endloop
  endfacet
  facet normal 1 0 0
    outer loop
      vertex 62.3 60.0364 9.22
      vertex 62.3 64.124 2.14
      vertex 62.3 70.9578 2.14
    endloop
  endfacet
  facet normal 1 0 0
    outer loop
      vertex 62.3 165.1 9.5
      vertex 62.3 60.0364 9.22
      vertex 62.3 75.0455 9.22
    endloop
  endfacet
  facet normal 1 0 0
    outer loop
      vertex 62.3 85.9669 2.14
      vertex 62.3 79.1331 2.14
      vertex 62.3 165.1 0
    endloop
  endfacet
  facet normal 1 0 0
    outer loop
      vertex 62.3 94.1422 2.14
      vertex 62.3 85.9669 2.14
      vertex 62.3 165.1 0
    endloop
  endfacet
  facet normal 1 0 0
    outer loop
      vertex 62.3 85.9669 2.14
      vertex 62.3 90.0545 9.22
      vertex 62.3 75.0455 9.22
    endloop
  endfacet
  facet normal 1 0 0
    outer loop
      vertex 62.3 154.179 2.14
      vertex 62.3 146.003 2.14
      vertex 62.3 165.1 0
    endloop
  endfacet
  facet normal 1 0 0
    outer loop
      vertex 62.3 165.1 9.5
      vertex 62.3 75.0455 9.22
      vertex 62.3 90.0545 9.22
    endloop
  endfacet
  facet normal 1 0 0
    outer loop
      vertex 62.3 100.976 2.14
      vertex 62.3 94.1422 2.14
      vertex 62.3 165.1 0
    endloop
  endfacet
  facet normal 1 0 0
    outer loop
      vertex 62.3 109.151 2.14
      vertex 62.3 100.976 2.14
      vertex 62.3 165.1 0
    endloop
  endfacet
  facet normal 1 0 0
    outer loop
      vertex 62.3 90.0545 9.22
      vertex 62.3 94.1422 2.14
      vertex 62.3 100.976 2.14
    endloop
  endfacet
  facet normal 1 0 0
    outer loop
      vertex 62.3 165.1 9.5
      vertex 62.3 90.0545 9.22
      vertex 62.3 105.064 9.22
    endloop
  endfacet
  facet normal 1 0 0
    outer loop
      vertex 62.3 115.985 2.14
      vertex 62.3 109.151 2.14
      vertex 62.3 165.1 0
    endloop
  endfacet
  facet normal 1 0 0
    outer loop
      vertex 62.3 124.16 2.14
      vertex 62.3 115.985 2.14
      vertex 62.3 165.1 0
    endloop
  endfacet
  facet normal 1 0 0
    outer loop
      vertex 62.3 115.985 2.14
      vertex 62.3 120.073 9.22
      vertex 62.3 105.064 9.22
    endloop
  endfacet
  facet normal 1 0 0
    outer loop
      vertex 62.3 150.091 9.22
      vertex 62.3 154.179 2.14
      vertex 62.3 165.1 0
    endloop
  endfacet
  facet normal 1 0 0
    outer loop
      vertex 62.3 165.1 9.5
      vertex 62.3 105.064 9.22
      vertex 62.3 120.073 9.22
    endloop
  endfacet
  facet normal 1 0 0
    outer loop
      vertex 62.3 120.073 9.22
      vertex 62.3 124.16 2.14
      vertex 62.3 130.994 2.14
    endloop
  endfacet
  facet normal 1 0 0
    outer loop
      vertex 62.3 165.1 9.5
      vertex 62.3 120.073 9.22
      vertex 62.3 135.082 9.22
    endloop
  endfacet
  facet normal 1 0 0
    outer loop
      vertex 62.3 130.994 2.14
      vertex 62.3 135.082 9.22
      vertex 62.3 120.073 9.22
    endloop
  endfacet
  facet normal 1 0 0
    outer loop
      vertex 62.3 146.003 2.14
      vertex 62.3 150.091 9.22
      vertex 62.3 135.082 9.22
    endloop
  endfacet
  facet normal 1 0 0
    outer loop
      vertex 62.3 135.082 9.22
      vertex 62.3 139.169 2.14
      vertex 62.3 146.003 2.14
    endloop
  endfacet
  facet normal 1 0 0
    outer loop
      vertex 62.3 165.1 9.5
      vertex 62.3 150.091 9.22
      vertex 62.3 165.1 0
    endloop
  endfacet
  facet normal 1 0 0
    outer loop
      vertex 62.3 165.1 9.5
      vertex 62.3 135.082 9.22
      vertex 62.3 150.091 9.22
    endloop
  endfacet
  facet normal 1 0 0
    outer loop
      vertex 62.3 100.976 2.14
      vertex 62.3 105.064 9.22
      vertex 62.3 90.0545 9.22
    endloop
  endfacet
  facet normal 1 0 0
    outer loop
      vertex 62.3 75.0455 9.22
      vertex 62.3 79.1331 2.14
      vertex 62.3 85.9669 2.14
    endloop
  endfacet
  facet normal 1 0 0
    outer loop
      vertex 62.3 70.9578 2.14
      vertex 62.3 75.0455 9.22
      vertex 62.3 60.0364 9.22
    endloop
  endfacet
  facet normal 1 0 0
    outer loop
      vertex 62.3 45.0273 9.22
      vertex 62.3 49.1149 2.14
      vertex 62.3 55.9487 2.14
    endloop
  endfacet
  facet normal 1 0 0
    outer loop
      vertex 62.3 40.9396 2.14
      vertex 62.3 45.0273 9.22
      vertex 62.3 30.0182 9.22
    endloop
  endfacet
  facet normal 1 0 0
    outer loop
      vertex 62.3 15.0091 9.22
      vertex 62.3 19.0967 2.14
      vertex 62.3 25.9305 2.14
    endloop
  endfacet
  facet normal 1 0 0
    outer loop
      vertex 62.3 10.9215 2.14
      vertex 62.3 15.0091 9.22
      vertex 62.3 0 9.5
    endloop
  endfacet
  facet normal 0 0 -1
    outer loop
      vertex 29.65 0 0
      vertex 29.65 165.1 0
      vertex 62.3 0 0
    endloop
  endfacet
  facet normal 0 0 -1
    outer loop
      vertex 62.3 0 0
      vertex 29.65 165.1 0
      vertex 62.3 165.1 0
    endloop
  endfacet
  facet normal -1 0 0
    outer loop
      vertex 29.65 165.1 1.5
      vertex 29.65 165.1 0
      vertex 29.65 0 1.5
    endloop
  endfacet
  facet normal -1 0 0
    outer loop
      vertex 29.65 0 1.5
      vertex 29.65 165.1 0
      vertex 29.65 0 0
    endloop
  endfacet
  facet normal 0 0 -1
    outer loop
      vertex 29.65 165.1 1.5
      vertex 29.65 0 1.5
      vertex 26.65 165.1 1.5
    endloop
  endfacet
  facet normal 0 0 -1
    outer loop
      vertex 26.65 165.1 1.5
      vertex 29.65 0 1.5
      vertex 26.65 0 1.5
    endloop
  endfacet
  facet normal 1 0 0
    outer loop
      vertex 26.65 165.1 0
      vertex 26.65 165.1 1.5
      vertex 26.65 0 1.5
    endloop
  endfacet
  facet normal 1 0 0
    outer loop
      vertex 26.65 0 0
      vertex 26.65 165.1 0
      vertex 26.65 0 1.5
    endloop
  endfacet
  facet normal 0 0 1
    outer loop
      vertex 56.3 151.95 6
      vertex 56.3 165.1 6
      vertex 0 165.1 6
    endloop
  endfacet
  facet normal 0 0 1
    outer loop
      vertex 0 151.95 6
      vertex 56.3 151.95 6
      vertex 0 165.1 6
    endloop
  endfacet
  facet normal 0 0 1
    outer loop
      vertex 56.3 16.8682 6
      vertex 56.3 28.1591 6
      vertex 0 28.1591 6
    endloop
  endfacet
  facet normal 0 0 1
    outer loop
      vertex 0 16.8682 6
      vertex 56.3 16.8682 6
      vertex 0 28.1591 6
    endloop
  endfacet
  facet normal 0 0 1
    outer loop
      vertex 56.3 31.8772 6
      vertex 56.3 43.1682 6
      vertex 0 43.1682 6
    endloop
  endfacet
  facet normal 0 0 1
    outer loop
      vertex 0 31.8772 6
      vertex 56.3 31.8772 6
      vertex 0 43.1682 6
    endloop
  endfacet
  facet normal 0 0 1
    outer loop
      vertex 56.3 46.8863 6
      vertex 56.3 58.1773 6
      vertex 0 58.1773 6
    endloop
  endfacet
  facet normal 0 0 1
    outer loop
      vertex 0 46.8863 6
      vertex 56.3 46.8863 6
      vertex 0 58.1773 6
    endloop
  endfacet
  facet normal 0 0 1
    outer loop
      vertex 56.3 61.8954 6
      vertex 56.3 73.1864 6
      vertex 0 73.1864 6
    endloop
  endfacet
  facet normal 0 0 1
    outer loop
      vertex 0 61.8954 6
      vertex 56.3 61.8954 6
      vertex 0 73.1864 6
    endloop
  endfacet
  facet normal 0 0 1
    outer loop
      vertex 56.3 76.9045 6
      vertex 56.3 88.1955 6
      vertex 0 88.1955 6
    endloop
  endfacet
  facet normal 0 0 1
    outer loop
      vertex 0 76.9045 6
      vertex 56.3 76.9045 6
      vertex 0 88.1955 6
    endloop
  endfacet
  facet normal 0 0 1
    outer loop
      vertex 56.3 91.9136 6
      vertex 56.3 103.205 6
      vertex 0 103.205 6
    endloop
  endfacet
  facet normal 0 0 1
    outer loop
      vertex 0 91.9136 6
      vertex 56.3 91.9136 6
      vertex 0 103.205 6
    endloop
  endfacet
  facet normal 0 0 1
    outer loop
      vertex 56.3 106.923 6
      vertex 56.3 118.214 6
      vertex 0 118.214 6
    endloop
  endfacet
  facet normal 0 0 1
    outer loop
      vertex 0 106.923 6
      vertex 56.3 106.923 6
      vertex 0 118.214 6
    endloop
  endfacet
  facet normal 0 0 1
    outer loop
      vertex 56.3 121.932 6
      vertex 56.3 133.223 6
      vertex 0 133.223 6
    endloop
  endfacet
  facet normal 0 0 1
    outer loop
      vertex 0 121.932 6
      vertex 56.3 121.932 6
      vertex 0 133.223 6
    endloop
  endfacet
  facet normal 0 0 1
    outer loop
      vertex 56.3 136.941 6
      vertex 56.3 148.232 6
      vertex 0 148.232 6
    endloop
  endfacet
  facet normal 0 0 1
    outer loop
      vertex 0 136.941 6
      vertex 56.3 136.941 6
      vertex 0 148.232 6
    endloop
  endfacet
endsolid OpenSCAD_Model
