solid OpenSCAD_Model
  facet normal -1 0 0
    outer loop
      vertex 0 -55 1.22125e-14
      vertex 0 -55 13
      vertex 0 0 0
    endloop
  endfacet
  facet normal -1 0 0
    outer loop
      vertex 0 0 0
      vertex 0 -55 13
      vertex 0 2.88658e-15 13
    endloop
  endfacet
  facet normal 0 -1 2.22045e-16
    outer loop
      vertex 0 -55 13
      vertex 0 -55 1.22125e-14
      vertex 33 -55 1.22125e-14
    endloop
  endfacet
  facet normal 0 -1 2.22045e-16
    outer loop
      vertex 33 -55 13
      vertex 0 -55 13
      vertex 33 -55 1.22125e-14
    endloop
  endfacet
  facet normal 0 -2.22045e-16 -1
    outer loop
      vertex 36 -33 7.32747e-15
      vertex 33 -55 1.22125e-14
      vertex 3 -33 7.32747e-15
    endloop
  endfacet
  facet normal 0 -2.22045e-16 -1
    outer loop
      vertex 0 -55 1.22125e-14
      vertex 0 0 0
      vertex 3 -33 7.32747e-15
    endloop
  endfacet
  facet normal 0 -2.22045e-16 -1
    outer loop
      vertex 0 -55 1.22125e-14
      vertex 3 -33 7.32747e-15
      vertex 33 -55 1.22125e-14
    endloop
  endfacet
  facet normal 0 -2.22045e-16 -1
    outer loop
      vertex 76 -3 6.66134e-16
      vertex 79 0 0
      vertex 76 -55 1.22125e-14
    endloop
  endfacet
  facet normal 0 -2.22045e-16 -1
    outer loop
      vertex 42 -3 6.66134e-16
      vertex 36 0 0
      vertex 79 0 0
    endloop
  endfacet
  facet normal 0 -2.22045e-16 -1
    outer loop
      vertex 42 -3 6.66134e-16
      vertex 79 0 0
      vertex 76 -3 6.66134e-16
    endloop
  endfacet
  facet normal 0 -2.22045e-16 -1
    outer loop
      vertex 76 -55 1.22125e-14
      vertex 79 0 0
      vertex 79 -55 1.22125e-14
    endloop
  endfacet
  facet normal 0 -2.22045e-16 -1
    outer loop
      vertex 42 -55 1.22125e-14
      vertex 41.1 -55 1.22125e-14
      vertex 36 -33 7.32747e-15
    endloop
  endfacet
  facet normal 0 -2.22045e-16 -1
    outer loop
      vertex 36 -33 7.32747e-15
      vertex 36 0 0
      vertex 42 -3 6.66134e-16
    endloop
  endfacet
  facet normal 0 -2.22045e-16 -1
    outer loop
      vertex 41.1 -55 1.22125e-14
      vertex 33 -55 1.22125e-14
      vertex 36 -33 7.32747e-15
    endloop
  endfacet
  facet normal 0 -2.22045e-16 -1
    outer loop
      vertex 42 -55 1.22125e-14
      vertex 36 -33 7.32747e-15
      vertex 42 -3 6.66134e-16
    endloop
  endfacet
  facet normal 0 -2.22045e-16 -1
    outer loop
      vertex 41.1 -55 1.22125e-14
      vertex 41.1 -64.3 1.42775e-14
      vertex 33 -55 1.22125e-14
    endloop
  endfacet
  facet normal 0 -2.22045e-16 -1
    outer loop
      vertex 3 -33 7.32747e-15
      vertex 0 0 0
      vertex 3 0 0
    endloop
  endfacet
  facet normal 0 -2.22045e-16 -1
    outer loop
      vertex 33 -55 1.22125e-14
      vertex 41.1 -64.3 1.42775e-14
      vertex 33 -64.3 1.42775e-14
    endloop
  endfacet
  facet normal 0 1 -2.22045e-16
    outer loop
      vertex 0 0 0
      vertex 0 2.88658e-15 13
      vertex 3 0 0
    endloop
  endfacet
  facet normal 0 1 -2.22045e-16
    outer loop
      vertex 3 0 0
      vertex 0 2.88658e-15 13
      vertex 3 2.88658e-15 13
    endloop
  endfacet
  facet normal 0 2.22045e-16 1
    outer loop
      vertex 3 -33 13
      vertex 0 -55 13
      vertex 33 -55 13
    endloop
  endfacet
  facet normal 0 2.22045e-16 1
    outer loop
      vertex 3 -33 13
      vertex 3 2.88658e-15 13
      vertex 0 2.88658e-15 13
    endloop
  endfacet
  facet normal 0 2.22045e-16 1
    outer loop
      vertex 33 -64.3 13
      vertex 41.1 -64.3 13
      vertex 33 -55 13
    endloop
  endfacet
  facet normal 0 2.22045e-16 1
    outer loop
      vertex 36 -33 13
      vertex 41.1 -55 13
      vertex 42 -55 13
    endloop
  endfacet
  facet normal 0 2.22045e-16 1
    outer loop
      vertex 76 -55 13
      vertex 79 -55 13
      vertex 76 -3 13
    endloop
  endfacet
  facet normal 0 2.22045e-16 1
    outer loop
      vertex 79 -55 13
      vertex 79 2.88658e-15 13
      vertex 76 -3 13
    endloop
  endfacet
  facet normal 0 2.22045e-16 1
    outer loop
      vertex 76 -3 13
      vertex 79 2.88658e-15 13
      vertex 36 2.88658e-15 13
    endloop
  endfacet
  facet normal 0 2.22045e-16 1
    outer loop
      vertex 42 -55 13
      vertex 42 -3 13
      vertex 36 -33 13
    endloop
  endfacet
  facet normal 0 2.22045e-16 1
    outer loop
      vertex 0 2.88658e-15 13
      vertex 0 -55 13
      vertex 3 -33 13
    endloop
  endfacet
  facet normal 0 2.22045e-16 1
    outer loop
      vertex 36 -33 13
      vertex 41.1 -64.3 13
      vertex 41.1 -55 13
    endloop
  endfacet
  facet normal 0 2.22045e-16 1
    outer loop
      vertex 36 -33 13
      vertex 33 -55 13
      vertex 41.1 -64.3 13
    endloop
  endfacet
  facet normal 0 2.22045e-16 1
    outer loop
      vertex 36 2.88658e-15 13
      vertex 42 -3 13
      vertex 76 -3 13
    endloop
  endfacet
  facet normal 0 2.22045e-16 1
    outer loop
      vertex 36 2.88658e-15 13
      vertex 36 -33 13
      vertex 42 -3 13
    endloop
  endfacet
  facet normal 0 2.22045e-16 1
    outer loop
      vertex 36 -33 13
      vertex 3 -33 13
      vertex 33 -55 13
    endloop
  endfacet
  facet normal -1 0 0
    outer loop
      vertex 33 -64.3 1.42775e-14
      vertex 33 -64.3 13
      vertex 33 -55 1.22125e-14
    endloop
  endfacet
  facet normal -1 0 0
    outer loop
      vertex 33 -55 1.22125e-14
      vertex 33 -64.3 13
      vertex 33 -55 13
    endloop
  endfacet
  facet normal 0 -1 2.22045e-16
    outer loop
      vertex 33 -64.3 13
      vertex 33 -64.3 1.42775e-14
      vertex 41.1 -64.3 1.42775e-14
    endloop
  endfacet
  facet normal 0 -1 2.22045e-16
    outer loop
      vertex 41.1 -64.3 13
      vertex 33 -64.3 13
      vertex 41.1 -64.3 1.42775e-14
    endloop
  endfacet
  facet normal 1 0 0
    outer loop
      vertex 41.1 -64.3 13
      vertex 41.1 -64.3 1.42775e-14
      vertex 41.1 -55 1.22125e-14
    endloop
  endfacet
  facet normal 1 0 0
    outer loop
      vertex 41.1 -55 13
      vertex 41.1 -64.3 13
      vertex 41.1 -55 1.22125e-14
    endloop
  endfacet
  facet normal 0 -1 2.22045e-16
    outer loop
      vertex 41.1 -55 13
      vertex 41.1 -55 1.22125e-14
      vertex 42 -55 1.22125e-14
    endloop
  endfacet
  facet normal 0 -1 2.22045e-16
    outer loop
      vertex 42 -55 13
      vertex 41.1 -55 13
      vertex 42 -55 1.22125e-14
    endloop
  endfacet
  facet normal 1 0 0
    outer loop
      vertex 42 -3 6.66134e-16
      vertex 42 -3 13
      vertex 42 -55 13
    endloop
  endfacet
  facet normal 1 0 0
    outer loop
      vertex 42 -55 1.22125e-14
      vertex 42 -3 6.66134e-16
      vertex 42 -55 13
    endloop
  endfacet
  facet normal 0 -1 2.22045e-16
    outer loop
      vertex 76 -3 6.66134e-16
      vertex 76 -3 13
      vertex 42 -3 13
    endloop
  endfacet
  facet normal 0 -1 2.22045e-16
    outer loop
      vertex 42 -3 6.66134e-16
      vertex 76 -3 6.66134e-16
      vertex 42 -3 13
    endloop
  endfacet
  facet normal -1 0 0
    outer loop
      vertex 76 -3 13
      vertex 76 -3 6.66134e-16
      vertex 76 -55 13
    endloop
  endfacet
  facet normal -1 0 0
    outer loop
      vertex 76 -55 13
      vertex 76 -3 6.66134e-16
      vertex 76 -55 1.22125e-14
    endloop
  endfacet
  facet normal 0 -1 2.22045e-16
    outer loop
      vertex 76 -55 13
      vertex 76 -55 1.22125e-14
      vertex 79 -55 1.22125e-14
    endloop
  endfacet
  facet normal 0 -1 2.22045e-16
    outer loop
      vertex 79 -55 13
      vertex 76 -55 13
      vertex 79 -55 1.22125e-14
    endloop
  endfacet
  facet normal 1 0 0
    outer loop
      vertex 79 -55 13
      vertex 79 -55 1.22125e-14
      vertex 79 0 0
    endloop
  endfacet
  facet normal 1 0 0
    outer loop
      vertex 79 2.88658e-15 13
      vertex 79 -55 13
      vertex 79 0 0
    endloop
  endfacet
  facet normal 0 1 -2.22045e-16
    outer loop
      vertex 36 0 0
      vertex 36 2.88658e-15 13
      vertex 79 0 0
    endloop
  endfacet
  facet normal 0 1 -2.22045e-16
    outer loop
      vertex 79 0 0
      vertex 36 2.88658e-15 13
      vertex 79 2.88658e-15 13
    endloop
  endfacet
  facet normal -1 0 0
    outer loop
      vertex 36 2.88658e-15 13
      vertex 36 0 0
      vertex 36 -33 13
    endloop
  endfacet
  facet normal -1 0 0
    outer loop
      vertex 36 -33 13
      vertex 36 0 0
      vertex 36 -33 7.32747e-15
    endloop
  endfacet
  facet normal 0 1 -2.22045e-16
    outer loop
      vertex 36 -33 13
      vertex 36 -33 7.32747e-15
      vertex 3 -33 13
    endloop
  endfacet
  facet normal 0 1 -2.22045e-16
    outer loop
      vertex 3 -33 13
      vertex 36 -33 7.32747e-15
      vertex 3 -33 7.32747e-15
    endloop
  endfacet
  facet normal 1 0 0
    outer loop
      vertex 3 0 0
      vertex 3 2.88658e-15 13
      vertex 3 -33 13
    endloop
  endfacet
  facet normal 1 0 0
    outer loop
      vertex 3 -33 7.32747e-15
      vertex 3 0 0
      vertex 3 -33 13
    endloop
  endfacet
  facet normal -1 0 0
    outer loop
      vertex 0 -137 3.04201e-14
      vertex 0 -137 13
      vertex 0 -82 1.82077e-14
    endloop
  endfacet
  facet normal -1 0 0
    outer loop
      vertex 0 -82 1.82077e-14
      vertex 0 -137 13
      vertex 0 -82 13
    endloop
  endfacet
  facet normal 0 -1 2.22045e-16
    outer loop
      vertex 0 -137 13
      vertex 0 -137 3.04201e-14
      vertex 42 -137 3.04201e-14
    endloop
  endfacet
  facet normal 0 -1 2.22045e-16
    outer loop
      vertex 36.25 -137 5.11436
      vertex 0 -137 13
      vertex 42 -137 3.04201e-14
    endloop
  endfacet
  facet normal 0 -1 2.22045e-16
    outer loop
      vertex 37.85 -137 5.11436
      vertex 36.25 -137 5.11436
      vertex 42 -137 3.04201e-14
    endloop
  endfacet
  facet normal 0 -1 2.22045e-16
    outer loop
      vertex 35.45 -137 6.5
      vertex 0 -137 13
      vertex 36.25 -137 5.11436
    endloop
  endfacet
  facet normal 0 -1 2.22045e-16
    outer loop
      vertex 36.25 -137 7.88564
      vertex 0 -137 13
      vertex 35.45 -137 6.5
    endloop
  endfacet
  facet normal 0 -1 2.22045e-16
    outer loop
      vertex 37.85 -137 7.88564
      vertex 38.65 -137 6.5
      vertex 42 -137 13
    endloop
  endfacet
  facet normal 0 -1 2.22045e-16
    outer loop
      vertex 42 -137 13
      vertex 0 -137 13
      vertex 36.25 -137 7.88564
    endloop
  endfacet
  facet normal 0 -1 2.22045e-16
    outer loop
      vertex 42 -137 13
      vertex 38.65 -137 6.5
      vertex 42 -137 3.04201e-14
    endloop
  endfacet
  facet normal 0 -1 2.22045e-16
    outer loop
      vertex 38.65 -137 6.5
      vertex 37.85 -137 5.11436
      vertex 42 -137 3.04201e-14
    endloop
  endfacet
  facet normal 0 -1 2.22045e-16
    outer loop
      vertex 36.25 -137 7.88564
      vertex 37.85 -137 7.88564
      vertex 42 -137 13
    endloop
  endfacet
  facet normal 0 -2.22045e-16 -1
    outer loop
      vertex 36 -115 2.55351e-14
      vertex 42 -137 3.04201e-14
      vertex 3 -115 2.55351e-14
    endloop
  endfacet
  facet normal 0 -2.22045e-16 -1
    outer loop
      vertex 0 -137 3.04201e-14
      vertex 0 -82 1.82077e-14
      vertex 3 -115 2.55351e-14
    endloop
  endfacet
  facet normal 0 -2.22045e-16 -1
    outer loop
      vertex 0 -137 3.04201e-14
      vertex 3 -115 2.55351e-14
      vertex 42 -137 3.04201e-14
    endloop
  endfacet
  facet normal 0 -2.22045e-16 -1
    outer loop
      vertex 76 -85 1.88738e-14
      vertex 79 -82 1.82077e-14
      vertex 76 -137 3.04201e-14
    endloop
  endfacet
  facet normal 0 -2.22045e-16 -1
    outer loop
      vertex 42 -137 3.04201e-14
      vertex 36 -115 2.55351e-14
      vertex 36 -82 1.82077e-14
    endloop
  endfacet
  facet normal 0 -2.22045e-16 -1
    outer loop
      vertex 76 -85 1.88738e-14
      vertex 36 -82 1.82077e-14
      vertex 79 -82 1.82077e-14
    endloop
  endfacet
  facet normal 0 -2.22045e-16 -1
    outer loop
      vertex 76 -137 3.04201e-14
      vertex 79 -82 1.82077e-14
      vertex 79 -137 3.04201e-14
    endloop
  endfacet
  facet normal 0 -2.22045e-16 -1
    outer loop
      vertex 42 -85 1.88738e-14
      vertex 36 -82 1.82077e-14
      vertex 76 -85 1.88738e-14
    endloop
  endfacet
  facet normal 0 -2.22045e-16 -1
    outer loop
      vertex 42 -137 3.04201e-14
      vertex 36 -82 1.82077e-14
      vertex 42 -85 1.88738e-14
    endloop
  endfacet
  facet normal 0 -2.22045e-16 -1
    outer loop
      vertex 3 -115 2.55351e-14
      vertex 0 -82 1.82077e-14
      vertex 3 -82 1.82077e-14
    endloop
  endfacet
  facet normal 0 1 -2.22045e-16
    outer loop
      vertex 0 -82 1.82077e-14
      vertex 0 -82 13
      vertex 3 -82 1.82077e-14
    endloop
  endfacet
  facet normal 0 1 -2.22045e-16
    outer loop
      vertex 3 -82 1.82077e-14
      vertex 0 -82 13
      vertex 3 -82 13
    endloop
  endfacet
  facet normal 0 2.22045e-16 1
    outer loop
      vertex 3 -115 13
      vertex 0 -137 13
      vertex 42 -137 13
    endloop
  endfacet
  facet normal 0 2.22045e-16 1
    outer loop
      vertex 36 -115 13
      vertex 3 -115 13
      vertex 42 -137 13
    endloop
  endfacet
  facet normal 0 2.22045e-16 1
    outer loop
      vertex 3 -115 13
      vertex 3 -82 13
      vertex 0 -82 13
    endloop
  endfacet
  facet normal 0 2.22045e-16 1
    outer loop
      vertex 79 -137 13
      vertex 76 -85 13
      vertex 76 -137 13
    endloop
  endfacet
  facet normal 0 2.22045e-16 1
    outer loop
      vertex 79 -82 13
      vertex 76 -85 13
      vertex 79 -137 13
    endloop
  endfacet
  facet normal 0 2.22045e-16 1
    outer loop
      vertex 79 -82 13
      vertex 36 -82 13
      vertex 76 -85 13
    endloop
  endfacet
  facet normal 0 2.22045e-16 1
    outer loop
      vertex 42 -85 13
      vertex 36 -115 13
      vertex 42 -137 13
    endloop
  endfacet
  facet normal 0 2.22045e-16 1
    outer loop
      vertex 0 -82 13
      vertex 0 -137 13
      vertex 3 -115 13
    endloop
  endfacet
  facet normal 0 2.22045e-16 1
    outer loop
      vertex 36 -82 13
      vertex 42 -85 13
      vertex 76 -85 13
    endloop
  endfacet
  facet normal 0 2.22045e-16 1
    outer loop
      vertex 36 -82 13
      vertex 36 -115 13
      vertex 42 -85 13
    endloop
  endfacet
  facet normal 1 0 0
    outer loop
      vertex 42 -85 1.88738e-14
      vertex 42 -85 13
      vertex 42 -137 13
    endloop
  endfacet
  facet normal 1 0 0
    outer loop
      vertex 42 -137 3.04201e-14
      vertex 42 -85 1.88738e-14
      vertex 42 -137 13
    endloop
  endfacet
  facet normal 0.866025 1.11022e-16 0.5
    outer loop
      vertex 36.25 -137 5.11436
      vertex 36.25 -127 5.11436
      vertex 35.45 -127 6.5
    endloop
  endfacet
  facet normal 0.866025 1.11022e-16 0.5
    outer loop
      vertex 35.45 -137 6.5
      vertex 36.25 -137 5.11436
      vertex 35.45 -127 6.5
    endloop
  endfacet
  facet normal 0 2.22045e-16 1
    outer loop
      vertex 37.85 -137 5.11436
      vertex 37.85 -127 5.11436
      vertex 36.25 -127 5.11436
    endloop
  endfacet
  facet normal 0 2.22045e-16 1
    outer loop
      vertex 36.25 -137 5.11436
      vertex 37.85 -137 5.11436
      vertex 36.25 -127 5.11436
    endloop
  endfacet
  facet normal -0.866025 1.11022e-16 0.5
    outer loop
      vertex 38.65 -127 6.5
      vertex 37.85 -127 5.11436
      vertex 38.65 -137 6.5
    endloop
  endfacet
  facet normal -0.866025 1.11022e-16 0.5
    outer loop
      vertex 38.65 -137 6.5
      vertex 37.85 -127 5.11436
      vertex 37.85 -137 5.11436
    endloop
  endfacet
  facet normal -0.866025 -1.11022e-16 -0.5
    outer loop
      vertex 38.65 -127 6.5
      vertex 38.65 -137 6.5
      vertex 37.85 -127 7.88564
    endloop
  endfacet
  facet normal -0.866025 -1.11022e-16 -0.5
    outer loop
      vertex 37.85 -127 7.88564
      vertex 38.65 -137 6.5
      vertex 37.85 -137 7.88564
    endloop
  endfacet
  facet normal 0 -2.22045e-16 -1
    outer loop
      vertex 37.85 -127 7.88564
      vertex 37.85 -137 7.88564
      vertex 36.25 -127 7.88564
    endloop
  endfacet
  facet normal 0 -2.22045e-16 -1
    outer loop
      vertex 36.25 -127 7.88564
      vertex 37.85 -137 7.88564
      vertex 36.25 -137 7.88564
    endloop
  endfacet
  facet normal 0.866025 -1.11022e-16 -0.5
    outer loop
      vertex 35.45 -127 6.5
      vertex 36.25 -127 7.88564
      vertex 36.25 -137 7.88564
    endloop
  endfacet
  facet normal 0.866025 -1.11022e-16 -0.5
    outer loop
      vertex 35.45 -137 6.5
      vertex 35.45 -127 6.5
      vertex 36.25 -137 7.88564
    endloop
  endfacet
  facet normal 0 -1 2.22045e-16
    outer loop
      vertex 76 -85 1.88738e-14
      vertex 76 -85 13
      vertex 42 -85 13
    endloop
  endfacet
  facet normal 0 -1 2.22045e-16
    outer loop
      vertex 42 -85 1.88738e-14
      vertex 76 -85 1.88738e-14
      vertex 42 -85 13
    endloop
  endfacet
  facet normal -1 0 0
    outer loop
      vertex 76 -85 13
      vertex 76 -85 1.88738e-14
      vertex 76 -137 13
    endloop
  endfacet
  facet normal -1 0 0
    outer loop
      vertex 76 -137 13
      vertex 76 -85 1.88738e-14
      vertex 76 -137 3.04201e-14
    endloop
  endfacet
  facet normal 0 -1 2.22045e-16
    outer loop
      vertex 76 -137 13
      vertex 76 -137 3.04201e-14
      vertex 79 -137 3.04201e-14
    endloop
  endfacet
  facet normal 0 -1 2.22045e-16
    outer loop
      vertex 79 -137 13
      vertex 76 -137 13
      vertex 79 -137 3.04201e-14
    endloop
  endfacet
  facet normal 1 0 0
    outer loop
      vertex 79 -137 13
      vertex 79 -137 3.04201e-14
      vertex 79 -82 1.82077e-14
    endloop
  endfacet
  facet normal 1 0 0
    outer loop
      vertex 79 -82 13
      vertex 79 -137 13
      vertex 79 -82 1.82077e-14
    endloop
  endfacet
  facet normal 0 1 -2.22045e-16
    outer loop
      vertex 36 -82 1.82077e-14
      vertex 36 -82 13
      vertex 79 -82 1.82077e-14
    endloop
  endfacet
  facet normal 0 1 -2.22045e-16
    outer loop
      vertex 79 -82 1.82077e-14
      vertex 36 -82 13
      vertex 79 -82 13
    endloop
  endfacet
  facet normal -1 0 0
    outer loop
      vertex 36 -82 13
      vertex 36 -82 1.82077e-14
      vertex 36 -115 13
    endloop
  endfacet
  facet normal -1 0 0
    outer loop
      vertex 36 -115 13
      vertex 36 -82 1.82077e-14
      vertex 36 -115 2.55351e-14
    endloop
  endfacet
  facet normal 0 1 -2.22045e-16
    outer loop
      vertex 36 -115 13
      vertex 36 -115 2.55351e-14
      vertex 3 -115 13
    endloop
  endfacet
  facet normal 0 1 -2.22045e-16
    outer loop
      vertex 3 -115 13
      vertex 36 -115 2.55351e-14
      vertex 3 -115 2.55351e-14
    endloop
  endfacet
  facet normal 1 0 0
    outer loop
      vertex 3 -82 1.82077e-14
      vertex 3 -82 13
      vertex 3 -115 13
    endloop
  endfacet
  facet normal 1 0 0
    outer loop
      vertex 3 -115 2.55351e-14
      vertex 3 -82 1.82077e-14
      vertex 3 -115 13
    endloop
  endfacet
  facet normal 0 -1 2.22045e-16
    outer loop
      vertex 36.25 -127 5.11436
      vertex 37.85 -127 5.11436
      vertex 38.65 -127 6.5
    endloop
  endfacet
  facet normal 0 -1 2.22045e-16
    outer loop
      vertex 36.25 -127 7.88564
      vertex 36.25 -127 5.11436
      vertex 37.85 -127 7.88564
    endloop
  endfacet
  facet normal 0 -1 2.22045e-16
    outer loop
      vertex 37.85 -127 7.88564
      vertex 36.25 -127 5.11436
      vertex 38.65 -127 6.5
    endloop
  endfacet
  facet normal 0 -1 2.22045e-16
    outer loop
      vertex 35.45 -127 6.5
      vertex 36.25 -127 5.11436
      vertex 36.25 -127 7.88564
    endloop
  endfacet
endsolid OpenSCAD_Model
